<?xml version="1.0" encoding="utf-8"?>
<!-- Generator: Adobe Illustrator 16.0.0, SVG Export Plug-In . SVG Version: 6.00 Build 0)  -->
<!DOCTYPE svg PUBLIC "-//W3C//DTD SVG 1.1//EN" "http://www.w3.org/Graphics/SVG/1.1/DTD/svg11.dtd">
<svg version="1.1" xmlns="http://www.w3.org/2000/svg" xmlns:xlink="http://www.w3.org/1999/xlink" x="0px" y="0px" width="46px"
	 height="55px" viewBox="0 0 46 55" enable-background="new 0 0 46 55" xml:space="preserve">
<g id="Layer_1">
</g>
<g id="Layer_2">
	<path fill="#676767" d="M4.469,39.992c-0.03-0.033-0.063-0.067-0.1-0.101c-0.122-0.115-0.262-0.144-0.388-0.257
		c-0.145-0.129-0.213-0.306-0.415-0.371c-0.115-0.038-0.204,0-0.317-0.016c-0.125-0.017-0.262-0.107-0.393-0.141
		c-0.151-0.038-0.307-0.088-0.45-0.149c-0.267-0.117-0.504-0.294-0.545-0.602c-0.039-0.295,0.028-0.606,0.036-0.901
		c0.013-0.496,0.001-0.994,0.001-1.491c0-0.198,0.048-0.48,0.005-0.677c-0.04-0.187-0.103-0.297-0.111-0.497
		c-0.007-0.165,0-0.414,0.103-0.55c0.13-0.171,0.167-0.078,0.338-0.019c0.155,0.055,0.378,0.093,0.505,0.204
		c0.095,0.086,0.094,0.166,0.169,0.266c0.117,0.152,0.312,0.214,0.426,0.389c0.117,0.176,0.095,0.329,0.146,0.52
		c0.096,0.356,0.491,0.508,0.812,0.52c0.209,0.008,0.33,0.043,0.32-0.206c-0.014-0.323-0.146-0.452-0.294-0.728
		c-0.133-0.247-0.223-0.527-0.417-0.735c-0.097-0.104-0.252-0.174-0.32-0.305c-0.189-0.367-0.146-0.581-0.558-0.764
		c-0.346-0.151-0.334-0.483-0.605-0.707c-0.099-0.081-0.206-0.096-0.292-0.192c-0.333-0.373-0.001-0.932-0.217-1.338
		c-0.256-0.484-0.39-0.952-0.492-1.492c-0.047-0.251-0.222-0.521-0.341-0.744c-0.201-0.376-0.207-0.804-0.301-1.215
		c-0.104-0.455-0.385-0.866-0.474-1.32c-0.093-0.475-0.009-1.038-0.011-1.521c-0.004-1.051,0.377-2.042,0.553-3.068
		c0.069-0.404,0.188-0.794,0.39-1.153c0.243-0.43,0.401-0.855,0.5-1.338c0.084-0.412,0.3-0.832,0.482-1.208
		c0.186-0.383,0.288-0.808,0.427-1.209c0.221-0.64,0.482-1.262,0.823-1.848c0.234-0.401,0.575-0.779,0.754-1.209
		c0.149-0.358,0.06-0.735,0.082-1.106c0.015-0.248,0.174-0.445,0.203-0.691c0.037-0.316,0.017-0.626-0.185-0.879
		c-0.155-0.195-0.344-0.354-0.34-0.625C3.986,10.267,3.968,10.2,3.851,10C3.741,9.814,3.641,9.583,3.588,9.377
		C3.55,9.229,3.575,9.101,3.568,8.952C3.56,8.805,3.51,8.704,3.484,8.561C3.435,8.298,3.427,8.068,3.333,7.81
		C3.209,7.465,2.927,7.186,2.859,6.85C2.821,6.66,2.852,6.462,2.812,6.272C2.773,6.079,2.653,5.824,2.55,5.624
		C2.349,5.237,2.42,4.789,2.42,4.358c0-0.32-0.023-0.649-0.005-0.968C2.436,3.023,2.7,2.776,2.737,2.421
		c0.026-0.251-0.062-0.43,0.092-0.647c0.163-0.233,0.404-0.302,0.631-0.44c0.397-0.241,0.732-0.63,1.14-0.837
		c0.211-0.107,0.505-0.205,0.734-0.261c0.112-0.027,0.203,0.001,0.312-0.018c0.124-0.021,0.21-0.092,0.335-0.115
		c0.227-0.041,0.479,0.051,0.706,0.011c0.262-0.046,0.444-0.125,0.727-0.112c0.25,0.012,0.501,0.134,0.73,0.233
		c0.25,0.108,0.483,0.261,0.729,0.371c0.653,0.292,1.352,0.464,2.007,0.752c0.26,0.114,0.587,0.235,0.808,0.411
		c0.171,0.135,0.218,0.341,0.306,0.521c0.107,0.22,0.309,0.386,0.395,0.629c0.086,0.244,0.102,0.498,0.203,0.729
		c0.091,0.205,0.192,0.387,0.262,0.601c0.042,0.13,0.089,0.434,0.181,0.551c0.25,0.322,0.834-0.056,1.068-0.293
		C14.4,4.203,14.57,4.06,15.013,4.063c0.235,0.001,0.411,0.01,0.627-0.079c0.157-0.065,0.355-0.206,0.513-0.239
		c0.205-0.043,0.424-0.046,0.63-0.096c0.238-0.057,0.46-0.141,0.705-0.188c0.215-0.041,0.436,0.018,0.647-0.018
		c0.069-0.012,0.269-0.068,0.319-0.108c0.154-0.119,0.034-0.135,0.092-0.319c0.13-0.416,1.051-0.35,1.381-0.232
		c0.208,0.074,0.48,0.217,0.708,0.117c0.223-0.098,0.229-0.437,0.405-0.514c0.138-0.06,0.477,0.009,0.632,0.009
		c0.214,0,0.427,0,0.641,0c0.344,0,0.688,0.009,1.03-0.001c0.287-0.009,0.541-0.094,0.827-0.103
		c0.217-0.007,0.335,0.064,0.531,0.106c0.276,0.056,0.851,0.069,1.124-0.019c0.008-0.096,0.016-0.186,0.026-0.281
		c0.204-0.053,0.423,0,0.632-0.04c0.196-0.037,0.507-0.044,0.631-0.177c0.075-0.083,0.073-0.245,0.151-0.326
		c0.123-0.134,0.094-0.025,0.239-0.094c0.272-0.129,0.309-0.137,0.309,0.205c0,0.231,0.094,0.4,0.107,0.625
		c0.016,0.231-0.048,0.373,0.094,0.545c0.37,0.452,1.066,0.195,1.547,0.31c0.233,0.055,0.398,0.083,0.646,0.081
		c0.237-0.003,0.414-0.005,0.624,0.125c0.253,0.158,0.512,0.299,0.521,0.603c0.01,0.231-0.188,0.404-0.008,0.553
		c0.316,0.258,0.879,0.169,1.257,0.177c0.329,0.006,0.287-0.085,0.494-0.318c0.178-0.198,0.402-0.375,0.647-0.488
		c0.233-0.108,0.477-0.224,0.731-0.237c0.209-0.011,0.43-0.027,0.625-0.119c0.165-0.079,0.36-0.29,0.494-0.425
		c0.181-0.183,0.345-0.313,0.552-0.471c0.335-0.255,0.739-0.34,1.14-0.465c0.211-0.065,0.4-0.174,0.625-0.185
		c0.289-0.014,0.549-0.096,0.835-0.104c0.241-0.008,0.486,0.021,0.726,0.005c0.223-0.016,0.395-0.105,0.626-0.106
		c0.272-0.001,0.398,0.077,0.623,0.233c0.301,0.208,0.589,0.363,0.932,0.494c0.205,0.08,0.446,0.101,0.642,0.206
		c0.111,0.06,0.175,0.189,0.274,0.242c0.153,0.083,0.31,0.063,0.465,0.147c0.494,0.268,0.924,0.72,1.231,1.176
		c0.301,0.449,0.23,1.089,0.492,1.566c0.111,0.204,0.175,0.387,0.105,0.619c-0.08,0.272-0.355,0.439-0.398,0.729
		c-0.038,0.243,0.014,0.389-0.12,0.62c-0.177,0.307-0.468,0.479-0.711,0.732c-0.498,0.523,0.193,0.88-0.014,1.456
		c-0.092,0.258-0.398,0.482-0.532,0.73c-0.115,0.212-0.251,0.45-0.41,0.627c-0.389,0.436-1.001,0.537-1.437,0.903
		c-0.223,0.189-0.3,0.444-0.493,0.661c-0.16,0.18-0.279,0.242-0.235,0.517c0.03,0.192,0.077,0.317,0.104,0.521
		c0.02,0.167,0.034,0.377,0.189,0.466c0.098,0.058,0.169,0.029,0.239,0.137c0.049,0.078,0.053,0.181,0.099,0.261
		c0.109,0.19,0.293,0.364,0.416,0.551c0.161,0.247,0.333,0.48,0.504,0.719c0.233,0.323,0.417,0.6,0.712,0.869
		c0.316,0.29,0.607,0.608,0.926,0.896c0.229,0.208,0.48,0.393,0.712,0.603c0.143,0.129,0.259,0.214,0.326,0.393
		c0.056,0.146,0.038,0.276,0.063,0.429c0.034,0.194,0.128,0.358,0.247,0.513c0.158,0.207,0.425,0.422,0.517,0.666
		c0.127,0.339,0.184,0.689,0.161,1.053c-0.016,0.271-0.186,0.486-0.303,0.718c-0.098,0.192-0.169,0.402-0.229,0.609
		c-0.127,0.447-0.054,0.989-0.052,1.453c0.002,0.201,0.021,0.378-0.065,0.567c-0.09,0.198-0.205,0.383-0.291,0.585
		c-0.096,0.231-0.195,0.466-0.289,0.698c-0.085,0.209-0.069,0.438-0.115,0.657c-0.098,0.458-0.221,0.95-0.502,1.334
		c-0.309,0.425-0.562,0.883-0.809,1.352c-0.365,0.689-0.686,1.365-0.891,2.119c-0.092,0.338-0.184,0.675-0.299,1.006
		c-0.18,0.516-0.444,1-0.626,1.512c0.295,0.181,0.584-0.291,0.731-0.473c0.229-0.278,0.573-0.578,0.605-0.96
		c0.025-0.281,0.182-0.485,0.341-0.7c0.107-0.146,0.237-0.279,0.316-0.445c0.058-0.121,0.072-0.435,0.199-0.506
		c0.289-0.161,0.172,0.567,0.209,0.715c0.092,0.355,0.188,0.746,0.184,1.122c-0.002,0.414,0,0.829,0,1.244
		c0,0.5,0.086,1.096-0.138,1.565c-0.213,0.451-0.562,0.821-0.908,1.163c-0.229,0.226-0.312,0.587-0.508,0.838
		c-0.122,0.152-0.317,0.253-0.429,0.41c-0.125,0.18-0.149,0.357-0.299,0.525c-0.209,0.235-0.652,0.391-0.725,0.716
		c0.199,0.052,0.575-0.397,0.736-0.507c0.283-0.188,0.596-0.394,0.896-0.551c0.203-0.108,0.208-0.19,0.361-0.364
		c0.063-0.076,0.096-0.085,0.177-0.129c-0.004,0.003,0.321-0.113,0.315-0.114c0.169,0.016,0.257,0.383,0.338,0.51
		c0.134,0.206,0.178,0.29,0.182,0.545c0.004,0.205,0.016,0.417,0.004,0.622c-0.016,0.286-0.111,0.535-0.107,0.829
		c0.004,0.3-0.012,0.551-0.102,0.837c-0.094,0.302-0.314,0.52-0.395,0.834c-0.08,0.313-0.105,0.485-0.333,0.729
		c-0.215,0.228-0.486,0.439-0.733,0.63c-0.229,0.179-0.496,0.363-0.749,0.513c-0.369,0.22-0.69,0.488-1.047,0.73
		c-0.255,0.176-0.444,0.423-0.723,0.549c-0.283,0.129-0.614,0.215-0.915,0.287c-0.237,0.059-0.46,0.116-0.697,0.203
		c-0.337,0.124-0.617,0.311-0.94,0.446c-0.272,0.114-0.563,0.186-0.831,0.306c-0.478,0.216-0.91,0.607-1.354,0.886
		c-0.344,0.216-0.72,0.472-1.015,0.755c-0.212,0.202-0.377,0.408-0.672,0.502c-0.263,0.085-0.536,0.006-0.807,0.095
		c-0.425,0.138-0.825,0.319-1.201,0.551c-0.325,0.199-0.672,0.319-0.99,0.518c-0.27,0.169-0.662,0.392-0.869,0.63
		c-0.153,0.177-0.251,0.276-0.51,0.316c-0.261,0.04-0.468,0.1-0.727,0.176c-0.578,0.171-1.038,0.466-1.562,0.755
		c-0.288,0.158-0.56,0.312-0.803,0.544c-0.187,0.18-0.33,0.263-0.555,0.391c-0.279,0.16-0.503,0.446-0.707,0.689
		c-0.171,0.205-0.35,0.334-0.507,0.557c-0.233,0.327-0.464,0.461-0.765,0.704c-0.2,0.162-0.328,0.388-0.51,0.556
		c-0.199,0.183-0.609,0.108-0.864,0.101c-0.259-0.009-0.402-0.066-0.596-0.231c-0.215-0.184-0.209-0.346-0.29-0.604
		c-0.08-0.253-0.131-0.526-0.337-0.712c-0.11-0.097-0.142-0.095-0.234-0.223c-0.096-0.135-0.187-0.269-0.287-0.395
		c-0.34-0.432-0.941-0.445-1.382-0.752c-0.187-0.131-0.385-0.232-0.596-0.339c-0.251-0.126-0.427-0.281-0.645-0.419
		c-0.084-0.054-0.226-0.097-0.315-0.151c-0.123-0.073-0.231-0.155-0.364-0.213c-0.244-0.104-0.507-0.181-0.758-0.258
		c-0.245-0.076-0.497-0.146-0.73-0.261c-0.309-0.15-0.676-0.211-0.944-0.419c-0.254-0.195-0.516-0.402-0.745-0.621
		c-0.304-0.29-0.675-0.496-0.987-0.78c-0.134-0.124-0.311-0.279-0.468-0.366c-0.178-0.102-0.395-0.091-0.577-0.151
		c-0.269-0.09-0.471-0.283-0.699-0.439c-0.235-0.162-0.474-0.221-0.743-0.3c-0.601-0.179-0.996-0.562-1.531-0.856
		c-0.402-0.222-0.918-0.423-1.261-0.726C7.045,45.46,6.872,45.08,6.478,44.86c-0.371-0.207-0.738-0.432-1.044-0.729
		c-0.351-0.341-0.766-0.633-1.036-1.036c-0.301-0.449-0.72-0.798-1.018-1.246c-0.104-0.156-0.619-1.179-0.239-1.266
		c0.139-0.033,0.406,0.161,0.501,0.246c0.142,0.125,0.242,0.213,0.436,0.263c0.188,0.047,0.661,0.118,0.743-0.074
		c0.077-0.18-0.052-0.468-0.111-0.63C4.648,40.221,4.577,40.108,4.469,39.992z"/>
</g>
</svg>
