<?xml version="1.0" encoding="utf-8"?>
<!-- Generator: Adobe Illustrator 16.0.0, SVG Export Plug-In . SVG Version: 6.00 Build 0)  -->
<!DOCTYPE svg PUBLIC "-//W3C//DTD SVG 1.1//EN" "http://www.w3.org/Graphics/SVG/1.1/DTD/svg11.dtd">
<svg version="1.1" id="Layer_1" xmlns="http://www.w3.org/2000/svg" xmlns:xlink="http://www.w3.org/1999/xlink" x="0px" y="0px"
	 width="45px" height="50px" viewBox="0 0 45 50" enable-background="new 0 0 45 50" xml:space="preserve">
<path fill-rule="evenodd" clip-rule="evenodd" fill="#676767" d="M44.738,12.573c-0.107,0.129-0.234,0.245-0.314,0.393
	c-0.207,0.383-0.337,0.809-0.579,1.167c-0.613,0.89-1.331,1.712-2.235,2.331c-0.427,0.29-0.861,0.57-1.294,0.848
	c-0.031,0.025-0.079,0.043-0.114,0.061c0-0.035-0.011-0.07-0.004-0.106c0.168-0.723,0.341-1.445,0.496-2.173
	c0.169-0.797,0.131-0.292,0.347-1.077c0.253-0.93,0.57-1.854,0.9-2.769c0.344-0.983,0.782-1.954,0.748-3.029
	c-0.024-0.48-0.116-0.98-0.273-1.431c-0.235-0.671-0.475-1.365-0.873-1.942c-0.371-0.568-0.838-1.077-1.165-1.678
	c-0.354-0.653-0.689-1.316-1.031-1.982c-0.149-0.281-0.296-0.572-0.437-0.85c-0.023,0.012-0.048,0.023-0.07,0.034
	c0.047,0.174,0.111,0.336,0.13,0.509c0.136,1.515,0.88,2.797,1.545,4.121c0.326,0.649,0.557,1.372,0.657,2.075
	c0.187,1.352-0.207,2.598-0.851,3.781c-0.288,0.537-0.847,0.754-1.411,0.555c-0.255-0.094-0.499-0.225-0.729-0.365
	c-0.932-0.549-1.746-1.243-2.474-2.031c-0.736-0.785-1.424-1.617-2.121-2.43c-0.312-0.36-0.63-0.718-0.941-1.071
	c-0.636-0.705-1.271-1.415-1.913-2.115c-0.068-0.067-0.166-0.099-0.25-0.143c0.019,0.091,0,0.213,0.051,0.282
	c0.26,0.365,0.574,0.697,0.81,1.088c0.437,0.712,0.784,1.5,1.266,2.195c1.546,2.242,3.391,4.202,5.666,5.734
	c0.519,0.352,0.865,0.818,0.802,1.482c-0.099,1.036-0.025,0.772-0.223,1.807c-0.189,0.937-0.48,1.868-1.06,2.657
	c-0.701,0.959-1.562,1.757-2.49,2.496c-0.684,0.544-1.433,0.912-2.24,1.192c-0.06,0.017-0.127,0-0.199,0
	c0.033-0.052,0.064-0.104,0.105-0.146c0.381-0.384,0.796-0.755,1.149-1.169c0.456-0.538,0.989-1.032,1.198-1.75
	c0.106-0.349,0.3-0.68,0.404-1.038c0.357-1.284,0.129-2.565-0.059-3.844c0-0.018-0.006-0.032-0.012-0.039
	c-0.034-0.049-0.071-0.087-0.098-0.128c-0.03,0.041-0.088,0.079-0.088,0.128c-0.101,0.584-0.186,1.165-0.271,1.745
	c-0.039,0.27-0.055,0.549-0.133,0.808c-0.591,1.956-1.818,3.446-3.397,4.678c-0.47,0.362-0.94,0.723-1.395,1.1
	c-0.503,0.42-1,0.833-1.691,0.894c-0.25,0.022-0.323,0.034-0.242-0.267c0.18-0.727,0.323-1.481,0.448-2.223
	c0.223-1.257,0.476-2.514,0.257-3.793c-0.139-0.83-0.339-1.661-0.534-2.478c-0.042-0.183-0.206-0.325-0.321-0.493
	c-0.024,0.201-0.106,0.422-0.073,0.613c0.169,0.947,0.196,1.9,0.067,2.849c-0.131,0.911-0.341,1.82-0.445,2.74
	c-0.126,1.112-0.487,2.157-0.949,3.143c-0.404,0.848-0.993,1.611-1.502,2.403c-0.033,0.06-0.132,0.105-0.204,0.105
	c-0.445-0.012-0.729,0.229-0.952,0.564c-0.255,0.383-0.752,0.336-1.055,0.631c-0.035,0.029-0.125,0.023-0.17-0.006
	c-0.232-0.136-0.544-0.242-0.668-0.449c-0.291-0.496-0.811-0.566-1.253-0.8c-0.056-0.026-0.16-0.067-0.194-0.045
	c-0.308,0.196-0.51,0.072-0.693-0.185c-0.124-0.184-0.29-0.348-0.405-0.53c-0.327-0.519-0.671-1.01-0.912-1.558
	c-0.407-0.892-0.734-1.83-1.108-2.744c-0.365-0.878-0.649-1.773-0.479-2.75c0.073-0.399,0.16-0.798,0.209-1.203
	c0.079-0.623,0.136-1.252,0.198-1.883c0.012-0.065-0.062-0.14-0.094-0.208c-0.044,0.046-0.114,0.088-0.147,0.152
	c-0.092,0.206-0.199,0.421-0.272,0.639c-0.265,0.722-0.577,1.435-0.771,2.173c-0.184,0.722-0.322,1.461-0.054,2.214
	c0.195,0.549,0.344,1.121,0.528,1.665c0.222,0.635,0.453,1.271,0.68,1.908c0.013,0.056-0.021,0.147-0.033,0.218
	c-0.309-0.069-0.681-0.043-0.901-0.218c-0.516-0.417-0.99-0.903-1.416-1.406c-0.55-0.64-1.06-1.329-1.533-2.027
	c-0.402-0.59-0.613-1.296-0.599-1.993c0-0.991-0.14-1.951-0.254-2.92c-0.044-0.388-0.106-0.781-0.164-1.167
	c-0.012-0.071-0.062-0.125-0.094-0.195c-0.042,0.056-0.093,0.113-0.112,0.178c-0.024,0.063-0.031,0.143-0.036,0.213
	c-0.083,1.533-0.197,3.063-0.238,4.596c-0.021,0.74,0.202,1.451,0.62,2.072c0.481,0.717,0.986,1.412,1.475,2.122
	c0.12,0.179,0.253,0.352,0.373,0.527c-0.235,0-0.473,0.009-0.712,0.009c-0.792,0.023-1.559-0.139-2.267-0.451
	c-0.879-0.392-1.701-0.913-2.418-1.569c-0.623-0.59-1.125-1.241-1.31-2.112c-0.194-0.876-0.445-1.743-0.674-2.611
	c-0.267-0.977-0.082-1.535,0.783-2.082c0.676-0.421,1.39-0.789,2.058-1.208c0.884-0.551,1.479-1.37,1.859-2.315
	c0.3-0.738,0.599-1.44,1.261-1.957C13.49,9.03,13.7,8.562,13.965,8.169c0.378-0.564,0.803-1.073,1.35-1.521
	c0.81-0.663,1.493-1.478,2.227-2.238c0.064-0.064,0.087-0.17,0.134-0.262c-0.099,0.017-0.212,0.003-0.286,0.05
	c-0.384,0.237-0.777,0.457-1.135,0.732c-0.658,0.501-1.289,1.01-1.916,1.544c-0.361,0.305-0.698,0.653-1.019,1.01
	c-0.27,0.306-0.444,0.714-0.756,0.963c-0.733,0.602-1.277,1.312-1.616,2.203c-0.45,1.123-1.102,2.072-2.352,2.457
	c-0.41,0.128-0.8,0.333-1.173,0.542c-0.643,0.37-1.237,0.228-1.514-0.46c-0.528-1.32-0.84-2.666-0.371-4.083
	C5.826,8.238,6.103,7.368,6.36,6.482c0.357-1.297,0.699-2.594,1.026-3.9C7.47,2.276,7.488,1.945,7.499,1.628
	C7.5,1.496,7.423,1.36,7.38,1.226C7.289,1.327,7.177,1.417,7.109,1.523C7.029,1.662,6.976,1.818,6.915,1.966
	C6.438,3.199,5.978,4.444,5.487,5.673C5.186,6.43,4.835,7.176,4.509,7.922c-0.634,1.434-0.815,2.942-0.498,4.456
	c0.34,1.57,0.809,3.125,1.268,4.675c0.282,0.948,0.638,1.868,0.945,2.808c0.039,0.112,0.02,0.252,0.02,0.378
	C6.126,20.22,6,20.213,5.884,20.181c-0.176-0.058-0.333-0.152-0.514-0.218c-1.077-0.383-2.093-0.868-3.001-1.573
	c-0.714-0.556-1.421-1.14-1.604-2.115c-0.013-0.063-0.047-0.144-0.097-0.193c-0.087-0.066-0.209-0.179-0.285-0.154
	c-0.1,0.034-0.227,0.162-0.237,0.258c-0.017,0.218-0.017,0.458,0.071,0.644c0.559,1.231,1.236,2.381,2.432,3.085
	c0.83,0.498,1.688,0.962,2.566,1.376c1.088,0.515,2.047,1.228,3.019,1.939c1.131,0.846,2.292,1.677,3.651,2.154
	c0.114,0.039,0.227,0.073,0.341,0.107c0.013,0.001,0.614,0.13,1.344,0.284c0.002-0.002,0.002-0.006,0.003-0.01
	c0.136,0.033,0.272,0.064,0.409,0.096c0.006,0.002,0.014,0.002,0.02,0.005c0.013,0.004,0.02,0.006,0.03,0.007
	c0.651,0.155,1.3,0.31,1.948,0.464c0.193,0.043,0.388,0.125,0.588,0.149c0.599,0.075,1.027,0.444,1.43,0.851
	c0.097,0.079,0.117,0.25,0.134,0.379c0.024,0.152-0.017,0.313,0.018,0.452c0.071,0.34,0.044,0.718,0.418,0.938
	c0.114,0.064,0.158,0.299,0.173,0.465c0.021,0.149-0.031,0.311-0.045,0.46c-0.136-0.04-0.26-0.108-0.397-0.122
	c-0.408-0.049-0.58-0.352-0.821-0.639c-0.232-0.281-0.536-0.527-0.829-0.757c-0.821-0.668-1.664-1.327-2.494-1.976
	c-0.078-0.058-0.156-0.107-0.235-0.158c-0.352-0.154-0.999-0.42-1.385-0.58c-0.039,0.001-0.081-0.024-0.124-0.051
	c-0.112-0.047-0.188-0.079-0.188-0.079c-0.312-0.062-0.625,0.157-0.581,0.472c0.104,0.695,0.254,1.379,0.388,2.059
	c0.054,0.27,0.062,0.557,0.191,0.789c0.28,0.532,0.578,1.057,0.937,1.532c0.308,0.406,0.658,0.854,1.088,1.104
	c0.854,0.494,1.66,1.121,2.657,1.325c0.06,0.02,0.105,0.062,0.152,0.094c0.365,0.343,0.75,0.66,1.086,1.025
	c0.17,0.179,0.307,0.432,0.333,0.67c0.047,0.514,0.053,1.032,0.014,1.547c-0.078,0.924-0.08,2.13-0.141,3.151L18.2,40.735
	l-0.691,5.753c0,0,2.27,3.146,5.288,3.175c2.551,0.024,3.309-0.545,5.939-3.175l-0.615-6.058c0.018-0.02,0.024-0.039,0.022-0.062
	c-0.018-0.037-0.295-2.135-0.326-2.736c-0.047-0.866,0.041-1.757-0.137-2.589c-0.136-0.67,0.2-0.994,0.536-1.399
	c0.151-0.172,0.274-0.423,0.463-0.489c0.413-0.148,0.751-0.396,1.099-0.631c0.38-0.255,0.763-0.532,1.177-0.694
	c0.63-0.253,1.152-0.658,1.469-1.207c0.592-1.033,0.925-2.18,1.19-3.334c0.019-0.059,0.034-0.168,0.056-0.174
	c0.306-0.017,0.188-0.242,0.21-0.394c0.035-0.3,0.035-0.612,0.096-0.913c0.073-0.423-0.05-0.556-0.495-0.525
	c-0.188,0.01-0.385-0.017-0.573,0.018c-0.195,0.04-0.427,0.09-0.593,0.206c-0.352,0.222-0.662,0.501-1.017,0.718
	c-0.215,0.139-0.39,0.267-0.562,0.464c-0.948,1.04-1.942,2.035-2.923,3.046c-0.093,0.083-0.216,0.188-0.324,0.202
	c-0.168,0.017-0.403,0.01-0.491-0.084c-0.112-0.115-0.169-0.296-0.029-0.537c0.173-0.274,0.302-0.592,0.277-0.989
	c-0.021-0.258,0.07-0.576,0.102-0.862c0.05-0.349,0.352-0.712,0.641-0.948c1.105-0.916,2.4-1.553,3.777-1.886
	c1.889-0.462,3.492-1.421,5.027-2.543c1.148-0.837,2.099-1.867,3.11-2.843c0.356-0.351,0.771-0.647,1.162-0.972
	c0.586-0.47,1.187-0.917,1.74-1.419c0.367-0.348,0.648-0.776,0.995-1.15c0.693-0.759,1.08-1.626,1.063-2.66
	C44.863,12.888,44.781,12.723,44.738,12.573z"/>
</svg>
