<?xml version="1.0" encoding="utf-8"?>
<!-- Generator: Adobe Illustrator 16.0.0, SVG Export Plug-In . SVG Version: 6.00 Build 0)  -->
<!DOCTYPE svg PUBLIC "-//W3C//DTD SVG 1.1//EN" "http://www.w3.org/Graphics/SVG/1.1/DTD/svg11.dtd">
<svg version="1.1" id="Layer_1" xmlns="http://www.w3.org/2000/svg" xmlns:xlink="http://www.w3.org/1999/xlink" x="0px" y="0px"
	 width="47px" height="34px" viewBox="0 0 47 34" enable-background="new 0 0 47 34" xml:space="preserve">
<path fill-rule="evenodd" clip-rule="evenodd" fill="#676767" d="M0.108,14.366C0.02,13.171,1.921,12.7,2.452,11.197
	C3.271,8.875,5.443,7.756,7.23,6.409c5.627-4.237,17.073-2.362,18.936-2.992c0.818-0.276,7.174-4.547,7.902-2.854
	c0.42,0.967-4.342,2.795-1.5,5.753c5.689,5.925,11.111,10.755,11.033,19.528c-0.008,0.51,4.078,5.053,3.209,6.805
	c-0.115,0.231-0.514-1.158-2.359-1.641c-0.564-0.144-1.24,0-1.629-0.503c-1.242,0.046-1.178-1.414-2.197-0.042
	c-0.555,0.756-0.723-2.354-0.246-3.97c0.369-1.244-0.547-2.448-4.516-6.403c-3.977-3.961-10.32-4.716-15.606-5.423
	c-0.365-0.048-0.871-0.169-1.11,0.16c0.165,0.651,1.551-0.031,1.778,0.506c-1.257,2.606-6.844-0.109-8.22-1.377
	C10.64,12.053-0.689,16.41,0.108,14.366L0.108,14.366L0.108,14.366L0.108,14.366z"/>
</svg>
