<?xml version="1.0" encoding="utf-8"?>
<!-- Generator: Adobe Illustrator 16.0.0, SVG Export Plug-In . SVG Version: 6.00 Build 0)  -->
<!DOCTYPE svg PUBLIC "-//W3C//DTD SVG 1.1//EN" "http://www.w3.org/Graphics/SVG/1.1/DTD/svg11.dtd">
<svg version="1.1" id="Layer_1" xmlns="http://www.w3.org/2000/svg" xmlns:xlink="http://www.w3.org/1999/xlink" x="0px" y="0px"
	 width="500px" height="500px" viewBox="0 0 500 500" enable-background="new 0 0 500 500" xml:space="preserve">
<g>
	<g>
		<path fill="#5D90A8" d="M499.167,116.271V386.82h-0.112c-2.491,61.996-53.551,111.513-116.16,111.513h-265.79
			c-62.607,0-113.668-49.517-116.159-111.513c-0.075-1.58-0.112-3.159-0.112-4.758V116.271c0-15.544,3.05-30.364,8.591-43.919
			C26.754,29.918,68.443,0,117.105,0h265.79c48.664,0,90.353,29.918,107.684,72.352C496.116,85.907,499.167,100.727,499.167,116.271
			z"/>
		<g>
			<path fill="#6FB6C6" d="M499.167,116.271V386.82h-0.112c-2.491,61.996-53.551,111.513-116.16,111.513h-265.79
				c-62.607,0-113.668-49.517-116.159-111.513c-0.075-1.58-0.112-3.159-0.112-4.758V116.271c0-15.544,3.05-30.364,8.591-43.919
				C26.754,29.918,68.443,0,117.105,0h265.79c48.664,0,90.353,29.918,107.684,72.352
				C496.116,85.907,499.167,100.727,499.167,116.271z"/>
			<path fill="#6CB2C4" d="M499.167,116.271V386.82H0.946c-0.075-1.58-0.112-3.159-0.112-4.758V116.271
				c0-15.544,3.05-30.364,8.591-43.919C26.754,29.918,68.443,0,117.105,0h265.79c48.664,0,90.353,29.918,107.684,72.352
				C496.116,85.907,499.167,100.727,499.167,116.271z"/>
			<path fill="#69AEC1" d="M499.167,116.271v219.601H0.834V116.271c0-15.544,3.05-30.364,8.591-43.919
				C26.754,29.918,68.443,0,117.105,0h265.79c48.664,0,90.353,29.918,107.684,72.352
				C496.116,85.907,499.167,100.727,499.167,116.271z"/>
			<path fill="#66AABE" d="M499.167,116.271v169.155H147.173c0,0-0.019,0-0.038,0H0.834V116.271c0-15.544,3.05-30.364,8.591-43.919
				C26.754,29.918,68.443,0,117.105,0h265.79c48.664,0,90.353,29.918,107.684,72.352
				C496.116,85.907,499.167,100.727,499.167,116.271z"/>
			<path fill="#63A6BB" d="M499.167,116.271v116.998H0.834V116.271c0-15.544,3.05-30.364,8.591-43.919
				C26.754,29.918,68.443,0,117.105,0h265.79c48.664,0,90.353,29.918,107.684,72.352
				C496.116,85.907,499.167,100.727,499.167,116.271z"/>
			<path fill="#60A2B9" d="M499.167,116.271v67.312H0.834v-67.312c0-15.544,3.05-30.364,8.591-43.919
				C26.754,29.918,68.443,0,117.105,0h265.79c48.664,0,90.353,29.918,107.684,72.352
				C496.116,85.907,499.167,100.727,499.167,116.271z"/>
			<path fill="#5F9EB6" d="M499.167,116.271v12.403H0.834v-12.403c0-15.544,3.05-30.364,8.591-43.919
				C26.754,29.918,68.443,0,117.105,0h265.79c48.664,0,90.353,29.918,107.684,72.352
				C496.116,85.907,499.167,100.727,499.167,116.271z"/>
			<path fill="#5C9AB2" d="M490.578,72.352H9.425C26.754,29.918,68.443,0,117.105,0h265.79C431.559,0,473.247,29.918,490.578,72.352
				z"/>
		</g>
		<path fill="#C3DEED" d="M212.859,385.796c-4.707-4.307-12.382-4.932-17.724-1.445c-5.343,3.488-7.857,10.767-5.807,16.808
			c-5.932-3.595-14.286-1.151-17.854,4.798c-3.567,5.949-1.376,14.614,4.59,18.153c-7.823-0.757-15.388,1.582-20.51,7.541
			c-1.198,6.098,3.355,12.148,8.989,14.767c5.634,2.622,12.084,2.622,18.298,2.575c28.7-0.222,57.399-0.443,86.101-0.665
			c6.073-0.047,12.217-0.102,18.107-1.587c5.891-1.481,11.597-4.56,15.061-9.55c3.465-4.987,4.231-12.081,0.861-17.134
			c-3.37-5.054-11.204-6.888-15.886-3.017c0-6.17-6.074-14.137-11.851-16.307c-5.774-2.168-12.807-0.399-16.869,4.246
			c1.213-5.878-2.713-12.439-8.353-14.495c-5.639-2.054-12.591,0.587-15.443,5.867c2.376-3.531,2.17-8.475-0.159-12.037
			c-2.33-3.561-6.289-5.825-10.421-6.848c-2.329-0.575-4.864-0.779-7.068,0.169C214.715,378.58,212.451,383.432,212.859,385.796z"/>
		<path fill="#CAE6F3" d="M396.087,351.373c-2.956-2.493-7.651-2.617-10.735-0.285c-3.083,2.331-4.241,6.886-2.647,10.408
			c-3.831-2.054-8.362-2.553-12.533-1.327c-2.549,2.715-3.683,6.695-2.941,10.347s3.334,6.875,6.742,8.382
			c-4.598,4.938-4.3,12.962,0.478,17.727c4.775,4.765,13.378,4.901,18.304,0.293c3.367,3.163,6.697,4.807,10.919,6.679
			c4.224,1.872,9.225,2.433,13.445,0.556c4.22-1.878,7.309-6.562,6.466-11.104c3.61,4.73,11.39,4.12,15.619-0.067
			c4.228-4.184,3.756-12.092-0.937-15.747c2.426-3.37,3.609-7.162,3.842-11.309s-1.721-8.618-5.483-10.369
			c-3.766-1.75-9.099,0.304-9.889,4.38c-2.538-6.505-6.45-12.907-12.962-15.435C407.266,341.974,398.335,344.761,396.087,351.373z"
			/>
		<path fill="#BFD9E6" d="M348.726,63.744c-0.332-5.851,3.52-11.697,9.025-13.703c5.505-2.005,12.213-0.004,15.722,4.69
			c4.285-6.399,12.696-8.992,19.975-6.475c7.279,2.518,12.373,10.276,11.788,17.955c5.434-1.762,10.817-3.615,16.528-3.497
			c5.709,0.117,11.648,2.279,15.042,6.873c3.392,4.594,3.374,11.816-0.944,15.551c4.794,1.595,9.605,2.69,13.655,5.717
			c4.046,3.026,7.18,7.733,7.006,12.784c-0.186,5.349-4.061,10.027-8.749,12.61c-4.688,2.583-10.107,3.435-15.416,4.115
			c-33.478,4.29-67.376,3.45-101.115,2.605c-7.172-0.18-14.613-0.425-21.017-3.656c-6.402-3.231-10.058-7.521-8.469-14.515
			c1.224-2.885,3.618-4.903,6.119-5.93c-7.492-6.457-7.325-16.811-0.85-24.286c3.603-3.604,8.8-3.588,13.324-2.79
			c-3.366-7.078,0.657-16.7,8.02-19.393C335.731,49.706,346.729,56.164,348.726,63.744z"/>
		<path fill="#CAE6F3" d="M212.657,131.295c-2.033-4.895-7.479-8.133-12.751-7.581c-5.271,0.553-9.928,4.85-10.901,10.06
			c-3.124-3.751-8.071-4.601-12.582-2.736c-4.511,1.866-7.524,6.843-7.085,11.705c0.313,3.473,2.994,7.131,6.469,6.844
			c-2.744,0.762-5.579,1.613-7.943,3.201c-2.364,1.587-4.264,4.144-4.314,6.991c-0.06,3.322,2.427,6.273,5.41,7.736
			c2.983,1.462,6.395,1.724,9.714,1.886c14.984,0.738,29.998-0.003,44.981-0.745c4.944-0.245,10.058-0.533,14.467-2.782
			c4.409-2.249,7.934-7.028,7.108-11.908c-0.826-4.88-7.392-8.252-11.152-5.035c3.457-6.989-1.24-18.114-8.205-21.622
			C221.48,125.1,215.605,127.361,212.657,131.295z"/>
		<path fill="#A9C1CC" d="M101.7,40.405c-2.57-4.364-6.458-8.092-11.244-9.75c-4.787-1.657-10.49-0.994-14.331,2.308
			c-3.841,3.302-5.292,9.347-2.769,13.739c-4.392-3.498-11.17-4.281-16.352-2.118c-5.183,2.162-9.006,7.28-9.61,12.862
			c2.562,2.965,5.679,5.448,9.143,7.278c-7.406,2.656-10.597,13.191-6.733,20.044c3.864,6.853,14.269,8.827,20.374,3.864
			c5.305,7.793,14.875,12.512,24.292,12.039c2.776-0.14,5.657-0.759,7.787-2.546c2.131-1.785,3.258-4.978,2.01-7.461
			c3.619,2.283,6.954,4.611,11.042,5.877c3.462,1.072,7.14,1.76,10.712,1.142c3.572-0.619,7.032-2.729,8.539-6.026
			c1.508-3.297,0.551-7.748-2.577-9.581c4.06,1.268,9.01-0.51,12.426-3.043c3.417-2.533,5.311-7.13,4.252-11.25
			c-1.059-4.118-5.252-7.321-9.479-6.86c5.221-3.849,5.165-14.057,0.424-18.483c-4.741-4.427-13.438-3.32-16.919,2.153
			c1.368-6.334-2.253-12.864-8.637-13.983C107.666,29.489,102.57,33.983,101.7,40.405z"/>
		<path fill="#BFD9E6" d="M72.323,359.681c-4.1-2.979-8.591-6.083-13.657-6.011c-5.064,0.074-10.239,5.121-8.4,9.838
			c-3.397-2.622-9.656-3.06-13.002-0.372c-3.348,2.688-4.519,7.752-2.691,11.637c-3.918-2.007-9.054,2.233-9.228,6.633
			c-0.173,4.398,3.28,8.286,7.321,10.031c4.042,1.743,8.583,1.8,12.984,1.826c12.397,0.08,24.795,0.16,37.192,0.24
			c4.591,0.029,9.328,0.03,13.564-1.739c4.236-1.772,7.88-5.797,7.731-10.388c-0.149-4.588-5.427-8.663-9.513-6.569
			c3.106-3.03,3.202-8.402,0.263-11.596c-2.939-3.192-8.472-3.505-11.75-0.661c2.054-3.203,0.56-7.772-3.032-9.025
			C76.515,352.271,72.71,355.896,72.323,359.681z"/>
	</g>
	<g>
		<path fill="#85BFCC" d="M165.792,290.742v0.28c0,1.99,0.242,3.942,0.707,5.783c2.865,11.565,14.114,19.617,26.516,17.906
			l45.52-6.322l21.309-2.957v-14.69H165.792z"/>
		<polygon fill="#8FCDDA" points="79.161,180.367 79.161,250.338 154.003,250.338 154.003,213.446 149.913,210.136 113.096,180.367 
					"/>
		<polygon fill="#8FCDDA" points="79.161,250.338 79.161,320.309 113.096,320.309 141.657,297.215 146.194,293.532 154.003,287.23 
			154.003,250.338 		"/>
		<path fill="#85BFCC" d="M79.161,250.338v20.826c7.736,4.518,16.066,8.088,24.489,11.139c11.845,4.294,23.987,7.717,36.334,10.188
			c2.045,0.409,4.128,0.801,6.211,1.041l7.809-6.302v-36.893H79.161z"/>
		<path fill="#9DDAE8" d="M71.537,250.338c0,3.85,5.616,8.609,15.489,13.723l2.064,1.061c6.49,3.197,14.616,6.525,24.025,9.854
			l2.063,0.725h0.019c7.178,2.491,15.081,4.984,23.56,7.401l2.044,0.577c7.271,2.045,14.95,4.035,22.964,5.949l2.026,0.482
			c7.215,1.692,14.69,3.331,22.37,4.854l1.989,0.391c7.122,1.412,14.393,2.734,21.793,3.941l1.934,0.316
			c7.028,1.135,14.15,2.176,21.327,3.105l1.897,0.241c6.917,0.875,13.871,1.656,20.862,2.306l1.878,0.167
			c6.862,0.633,13.742,1.153,20.603,1.525l1.859,0.113c6.862,0.352,13.687,0.594,20.454,0.687c0.632,0,1.246,0.018,1.859,0.018
			c1.507,0.019,3.015,0.019,4.52,0.019c5.468,0,10.767-0.055,15.935-0.186c0.632-0.019,1.266-0.036,1.879-0.055
			c7.179-0.187,14.057-0.503,20.659-0.93c0.633-0.038,1.265-0.076,1.896-0.112c7.343-0.501,14.336-1.133,20.973-1.896
			c0.671-0.076,1.304-0.149,1.954-0.224h0.019c7.661-0.93,14.839-2.009,21.568-3.274c0.69-0.11,1.377-0.239,2.065-0.388
			c8.238-1.582,15.767-3.422,22.61-5.488c0.725-0.203,1.451-0.427,2.157-0.649c9.558-2.975,17.702-6.396,24.469-10.189l2.306-1.32
			v-0.018c8.981-5.357,15.305-11.419,19.023-17.927c2.717-4.723,4.054-9.688,4.054-14.801c0-11.808-7.104-22.778-21.7-31.908
			l-2.307-1.395c-6.784-3.942-15.023-7.512-24.768-10.618c-0.723-0.242-1.449-0.465-2.193-0.688
			c-6.917-2.12-14.56-4.017-22.928-5.653l-2.099-0.391c-6.806-1.283-14.077-2.398-21.812-3.328l-1.99-0.242
			c-6.675-0.782-13.704-1.432-21.086-1.916c-0.632-0.056-1.281-0.093-1.934-0.13c-6.637-0.447-13.556-0.763-20.77-0.949
			c-0.614-0.019-1.246-0.038-1.88-0.056c-5.223-0.131-10.579-0.186-16.102-0.186c-1.469,0-2.958,0-4.425,0.037
			c-0.632-0.018-1.264,0-1.878,0.018c-6.806,0.075-13.648,0.317-20.53,0.67l-1.859,0.111c-6.896,0.372-13.797,0.893-20.693,1.524
			l-1.88,0.187c-7.028,0.651-14.057,1.432-21.011,2.305l-1.915,0.26c-7.233,0.93-14.43,1.989-21.496,3.143l-1.952,0.316
			c-7.475,1.228-14.819,2.567-21.998,3.979c-0.669,0.13-1.338,0.261-2.007,0.41c-7.754,1.542-15.303,3.198-22.574,4.908
			l-2.027,0.484c-8.07,1.934-15.805,3.96-23.132,6.024l-2.044,0.596c-8.517,2.436-16.438,4.965-23.616,7.475l-2.026,0.725
			c-9.354,3.348-17.386,6.694-23.782,9.911l-1.99,1.023h-0.018C76.855,241.97,71.537,246.582,71.537,250.338z"/>
		<rect x="301.833" y="306.86" fill="#4A545E" width="42.05" height="7.387"/>
		<rect x="298.989" y="313.801" fill="#E9AC64" width="47.735" height="19.386"/>
		<path fill="#FCBC6D" d="M298.989,313.801v5.68c0.763,0.501,1.536,0.955,2.308,1.377c13.786,7.535,29.753,11.023,45.428,9.954
			v-17.011H298.989z"/>
		<path fill="#9DDAE8" d="M79.161,180.367v29.677c9.148,5.225,20.436,7.196,31.146,6.806c13.406-0.484,26.441-4.054,39.606-6.713
			l-36.817-29.77H79.161z"/>
		<path fill="#9DDAE8" d="M79.161,303.63v16.679h33.935l28.561-23.094c-7.028-0.8-14.094-1.098-21.161-1.395
			c-11.417-0.465-23.224-0.874-33.823,3.438C84.033,300.338,81.467,301.827,79.161,303.63z"/>
		<path fill="#8FCDDA" d="M115.067,275.664c46.783,16.27,123.914,32.13,194.071,32.13c92.452,0,143.473-18.092,157.514-42.655
			c-115.714,20.194-234.328,23.596-351.008,10.023C115.439,275.329,115.253,275.479,115.067,275.664z"/>
		<g>
			<g>
				<path fill="#B1E2F2" d="M445.322,284.403c6.823-23.43,7.271-45.947,1.376-67.368l2.307,1.395
					c5.298,20.621,4.855,42.209-1.377,64.635v0.018L445.322,284.403z"/>
			</g>
			<g>
				<path fill="#B1E2F2" d="M418.696,295.242c0.725-0.203,1.451-0.427,2.157-0.649c9.594-31.016,9.947-60.543,1.077-88.175
					c-0.723-0.242-1.449-0.465-2.193-0.688C429.034,233.696,428.7,263.708,418.696,295.242z"/>
			</g>
			<g>
				<path fill="#B1E2F2" d="M394.021,301.118c10.563-35.997,10.805-70.026,0.69-101.432l2.099,0.391
					c9.819,31.22,9.577,65.007-0.724,100.653L394.021,301.118z"/>
			</g>
			<g>
				<path fill="#B1E2F2" d="M370.479,304.616c9.613-38.66,9.744-75.104,0.429-108.5l1.99,0.242c9.148,33.302,9,69.617-0.446,108.034
					h-0.019L370.479,304.616z"/>
			</g>
			<g>
				<path fill="#B1E2F2" d="M347.61,306.624c0.633-0.038,1.265-0.076,1.896-0.112c7.641-40.053,7.754-77.799,0.315-112.311
					c-0.632-0.056-1.281-0.093-1.934-0.13C355.4,228.601,355.309,266.421,347.61,306.624z"/>
			</g>
			<g>
				<path fill="#B1E2F2" d="M325.072,307.608c0.632-0.019,1.266-0.036,1.879-0.055c5.299-40.871,5.355-79.343,0.168-114.431
					c-0.614-0.019-1.246-0.038-1.88-0.056C330.466,228.155,330.411,266.664,325.072,307.608z"/>
			</g>
			<g>
				<path fill="#B1E2F2" d="M302.759,307.758c0.632,0,1.246,0.018,1.859,0.018c2.66-41.037,2.698-79.677,0.095-114.857
					c-0.632-0.018-1.264,0-1.878,0.018C305.457,228.099,305.419,266.719,302.759,307.758z"/>
			</g>
			<g>
				<polygon fill="#B1E2F2" points="280.445,306.958 280.445,193.718 282.305,193.606 282.305,307.071 				"/>
			</g>
			<g>
				<path fill="#B1E2F2" d="M257.965,305.266c-2.435-39.141-2.474-76.033-0.093-109.837l1.88-0.187
					c-2.4,33.898-2.362,70.921,0.091,110.19L257.965,305.266z"/>
			</g>
			<g>
				<path fill="#B1E2F2" d="M235.206,302.719c-4.48-37.189-4.555-72.351-0.26-104.725l1.915-0.26
					c-4.37,32.485-4.295,67.815,0.242,105.226L235.206,302.719z"/>
			</g>
			<g>
				<path fill="#B1E2F2" d="M211.944,299.297c-5.857-34.604-6.006-67.423-0.447-97.844l1.953-0.316
					c-5.672,30.569-5.541,63.594,0.428,98.477L211.944,299.297z"/>
			</g>
			<g>
				<path fill="#B1E2F2" d="M188.162,294.965c-6.527-31.369-6.75-61.231-0.669-89.123c0.669-0.149,1.338-0.28,2.007-0.41
					c-6.266,28.096-6.043,58.238,0.651,89.923L188.162,294.965z"/>
			</g>
			<g>
				<path fill="#B1E2F2" d="M163.766,289.628c-6.378-27.409-6.675-53.645-0.874-78.394l2.027-0.484
					c-6.006,24.991-5.708,51.563,0.873,79.36L163.766,289.628z"/>
			</g>
			<g>
				<path fill="#B1E2F2" d="M138.757,283.102c-5.412-22.647-5.747-44.46-1.042-65.248l2.044-0.596
					c-4.945,21.124-4.592,43.327,1.042,66.421L138.757,283.102z"/>
			</g>
			<g>
				<path fill="#B1E2F2" d="M113.115,274.976c-3.664-16.81-3.999-33.135-1.042-48.922l2.026-0.725
					c-3.198,16.214-2.826,33.023,1.079,50.372h0.019L113.115,274.976z"/>
			</g>
			<g>
				<path fill="#B1E2F2" d="M89.09,265.121c-1.636-9.894-1.915-19.618-0.799-29.157l-1.99,1.023h-0.018
					c-0.912,8.87-0.669,17.889,0.743,27.073L89.09,265.121z"/>
			</g>
		</g>
		<g>
			<circle fill="#4A545E" cx="341.808" cy="325.199" r="1.705"/>
			<circle fill="#4A545E" cx="335.842" cy="325.199" r="1.705"/>
			<circle fill="#4A545E" cx="329.876" cy="325.199" r="1.704"/>
			<circle fill="#4A545E" cx="323.911" cy="325.199" r="1.704"/>
			<circle fill="#4A545E" cx="317.945" cy="325.199" r="1.705"/>
			<circle fill="#4A545E" cx="311.979" cy="325.199" r="1.704"/>
			<circle fill="#4A545E" cx="306.014" cy="325.199" r="1.704"/>
		</g>
		<path fill="#85BFCC" d="M77.06,250.319c0,1.897,36.724,5.113,61.919,5.113c11.455,0,18.557-0.484,22.909-1.266
			c5.225-0.93,6.452-2.304,6.452-3.848c0-2.808-4.146-5.095-29.361-5.095c-17.98,0-41.837,1.636-54.017,3.254
			C80.072,249.148,77.06,249.78,77.06,250.319z"/>
		<path fill="#B1E2F2" d="M84.962,248.479c11.993,0,24.006-0.019,36.018-0.056c12.905-0.019,26.144,0.018,38.174,4.666
			c0.912,0.354,1.822,0.727,2.734,1.078c5.225-0.93,6.452-2.304,6.452-3.848c0-2.808-4.146-5.095-29.361-5.095
			C120.999,245.224,97.142,246.86,84.962,248.479z"/>
		<path fill="#9DDAE8" d="M166.499,296.806c2.865,11.565,14.114,19.617,26.516,17.906l45.52-6.322
			c-0.297-0.055-0.577-0.111-0.874-0.149c-12.514-1.821-25.271-1.133-37.896-2.008C188.143,305.433,176.205,303.108,166.499,296.806
			z"/>
	</g>
</g>
</svg>
