<?xml version="1.0" encoding="utf-8"?>
<!-- Generator: Adobe Illustrator 16.0.0, SVG Export Plug-In . SVG Version: 6.00 Build 0)  -->
<!DOCTYPE svg PUBLIC "-//W3C//DTD SVG 1.1//EN" "http://www.w3.org/Graphics/SVG/1.1/DTD/svg11.dtd">
<svg version="1.1" id="Layer_1" xmlns="http://www.w3.org/2000/svg" xmlns:xlink="http://www.w3.org/1999/xlink" x="0px" y="0px"
	 width="500px" height="500px" viewBox="0 0 500 500" enable-background="new 0 0 500 500" xml:space="preserve">
<g>
	<g>
		<g>
			<path fill="#66ACC7" d="M498.665,116.116v265.435l-0.112,4.755c-0.203,5.458-0.798,10.806-1.744,16.043
				c-2.228,12.275-6.369,23.882-12.125,34.503c-6.333,11.662-14.599,22.118-24.382,30.915
				c-20.575,18.588-47.835,29.896-77.75,29.896H117.116c-29.916,0-57.175-11.309-77.751-29.896
				c-9.785-8.797-18.049-19.253-24.382-30.915c-5.757-10.621-9.897-22.228-12.125-34.503c-0.947-5.237-1.542-10.585-1.746-16.043
				C1.037,384.726,1,383.148,1,381.551V116.116C1,51.995,52.995,0,117.116,0h265.436C446.672,0,498.665,51.995,498.665,116.116z"/>
			<path fill="#7AC6D1" d="M498.665,116.116v265.435l-0.112,4.755H1.111C1.037,384.726,1,383.148,1,381.551V116.116
				C1,51.995,52.995,0,117.116,0h265.436C446.672,0,498.665,51.995,498.665,116.116z"/>
			<path fill="#77C2CF" d="M498.665,116.116v219.308H1V116.116C1,51.995,52.995,0,117.116,0h265.436
				C446.672,0,498.665,51.995,498.665,116.116z"/>
			<path fill="#72BCCD" d="M498.665,116.116v168.928H1V116.116C1,51.995,52.995,0,117.116,0h265.436
				C446.672,0,498.665,51.995,498.665,116.116z"/>
			<path fill="#6EB7CB" d="M498.665,116.116v116.841H1V116.116C1,51.995,52.995,0,117.116,0h265.436
				C446.672,0,498.665,51.995,498.665,116.116z"/>
			<path fill="#6AB1C9" d="M498.665,116.116v67.223H1v-67.223C1,51.995,52.995,0,117.116,0h265.436
				C446.672,0,498.665,51.995,498.665,116.116z"/>
			<path fill="#66ACC7" d="M498.665,116.116v12.387H1v-12.387C1,51.995,52.995,0,117.116,0h265.436
				C446.672,0,498.665,51.995,498.665,116.116z"/>
		</g>
		<g>
			<path fill="#4D94B5" d="M498.665,363.854v17.696l-0.112,4.755c-0.203,5.458-0.798,10.806-1.744,16.043
				c-2.228,12.275-6.369,23.882-12.125,34.503c-6.333,11.662-14.599,22.118-24.382,30.915
				c-20.575,18.588-47.835,29.896-77.75,29.896H117.116c-29.916,0-57.175-11.309-77.751-29.896
				c-9.785-8.797-18.049-19.253-24.382-30.915c-5.757-10.621-9.897-22.228-12.125-34.503c-0.947-5.237-1.542-10.585-1.746-16.043
				C1.037,384.726,1,383.148,1,381.551v-17.642c2.562-0.426,5.998-1.3,6.369-1.467c3.863-1.875,6.89-5.571,7.67-9.823
				c-0.39,2.172,5.906,7.335,7.409,8.469c3.714,2.785,6.926,3.509,11.421,3.917c8.542,0.762,14.744-1.096,20.928-7.595
				c-0.075-0.372-0.149-0.742-0.205-1.132c0.762,4.065,10.437,8.839,13.946,9.637c8.616,2.023,19.089-2.024,24.753-8.339
				c-0.668,1.636,17.678,6.035,19.089,6.204c4.066,0.501,8.431,0.203,11.124-2.618c1.002-1.021,1.764-2.378,2.209-4.179
				c-0.575,2.304,6.24,5.664,9.229,6.871c0.464,0.186,0.836,0.315,1.077,0.391c4.568,1.336,11.048,1.708,15.896-0.391
				c2.525-1.077,4.624-2.859,5.757-5.517c0.149-0.333,0.278-0.705,0.39-1.077c-0.112,0.354,0.019,0.762,0.315,1.17
				c1.375,1.896,6.351,4.272,9.508,5.424c1.132,0.408,2.024,0.668,2.451,0.706c5.608,0.39,10.975,1.262,15.655-0.706
				c1.188-0.502,2.321-1.171,3.398-2.08c0.853-0.705,1.671-1.56,2.451-2.582c1.263-0.667,6.852,2.359,10.027,3.919
				c0.019,0.019,0.038,0.019,0.057,0.019c0.724,0.354,1.336,0.612,1.708,0.725c0.037,0.019,0.074,0.036,0.093,0.036
				c3.287,0.947,6.703,0.929,9.823-0.036c3.361-1.041,6.388-3.195,8.561-6.389c-0.725,1.096,10.863,3.955,17.623,5.461
				c0.019-0.021,0.019-0.021,0.037,0c2.321,0.5,4.066,0.834,4.531,0.89c0.186,0.019,0.372,0.038,0.576,0.038
				c1.132,0.111,2.247,0.111,3.342,0c2.675-0.187,5.145-0.892,7.502-2.062c0.019,0,0.036-0.019,0.057-0.019
				c2.654-1.3,5.087-3.213,7.241-5.645c-1.263,1.446,0.204,3.398,2.434,5.143c1.207,0.946,2.637,1.857,3.955,2.582
				c1.689,0.947,3.229,1.614,3.919,1.783c4.939,1.244,10.285,0.612,14.669-1.783c2.359-1.282,4.419-3.064,5.961-5.329
				c0.354-0.465,0.648-0.949,0.928-1.449c-0.221,0.408-0.203,0.872,0,1.337c0.985,2.154,6.071,4.588,8.469,5.441
				c0.465,0.167,0.816,0.26,1.039,0.296c5.943,0.929,12.406,1.449,17.919-0.296c3.493-1.115,6.612-3.121,8.951-6.519
				c-0.853,1.243,8.543,5.496,11.347,6.519c0.315,0.111,0.539,0.186,0.669,0.203c4.494,0.854,9.173,1.151,13.035-0.203
				c3.565-1.245,6.425-3.9,7.762-8.802c-0.239,0.91,0.335,1.893,1.356,2.859c0.798,0.742,1.857,1.485,2.988,2.173
				c2.731,1.615,5.906,2.878,7.002,3.137c7.893,1.857,22.543,3.714,25.218-6.74c-0.8,3.139,17.977,6.74,20.111,6.964
				c6.925,0.762,12.478,0.966,14.745-7.262c-1.244,4.496,13.368,8.246,15.896,8.469c7.185,0.688,12.256-3.008,15.595-9.489
				c-0.834,1.634,5.887,6.314,6.985,6.927c3.322,1.819,6.554,2.173,10.25,2.117C488.992,364.114,493.838,363.891,498.665,363.854z"
				/>
			<path fill="#508DAD" d="M496.809,402.349c-2.228,12.275-6.369,23.882-12.125,34.503c-6.333,11.662-14.599,22.118-24.382,30.915
				c-20.575,18.588-47.835,29.896-77.75,29.896H117.116c-29.916,0-57.175-11.309-77.751-29.896
				c-9.785-8.797-18.049-19.253-24.382-30.915c-5.757-10.621-9.897-22.228-12.125-34.503H496.809z"/>
			<path fill="#5089A9" d="M484.684,436.852c-6.333,11.662-14.599,22.118-24.382,30.915c-20.575,18.588-47.835,29.896-77.75,29.896
				H117.116c-29.916,0-57.175-11.309-77.751-29.896c-9.785-8.797-18.049-19.253-24.382-30.915H484.684z"/>
			<path fill="#5286A4" d="M39.364,467.767h420.938c-20.575,18.588-47.835,29.896-77.75,29.896H117.116
				C87.2,497.663,59.94,486.354,39.364,467.767z"/>
		</g>
		<g>
			<path fill="#516B85" d="M183.246,410.894c-1.281,3.473-6.741,5.849-7.799,7.074c-3.584,4.104-7.595,6.425-12.925,8.562
				c1.171,2.562,1.784,8.022,0.428,10.511c-0.464-1.226-1.077-2.192-2.73-3.976c-0.26,2.137-1.931,3.083-3.008,4.96
				c-1.207-2.73,0.168-6.147-1.579-8.562c-10.045,3.64-20.668,6.128-29.154,12.053c-0.111,0.074-0.204,0.129-0.297,0.203
				c0.539,4.921-1.894,10.012-6.165,12.536c-0.056-3.304,0.167-6.166,0.112-9.473c-5.999,2.694-11.235-0.576-17.363-2.933
				c5.181-2.842,9.953-1.318,15.802-2.173c5.274-10.251,13.612-19.331,24.679-22.507c-2.451-2.749-4.847-4.067-8.449-4.848
				c0.241-3.175,12.107-2.84,16.582,0.634c6.258-3.157,14.355-4.83,19.535-3.104c0.799,0.262,1.542,0.613,2.191,1.041
				c1.728,0.298,2.878,1.06,4.772,0.465C179.773,410.763,181.76,409.594,183.246,410.894z"/>
			<path fill="#597692" d="M183.246,410.894c-1.281,3.473-6.741,5.849-7.799,7.074c-3.584,4.104-7.595,6.425-12.925,8.562
				c1.171,2.562,1.784,8.022,0.428,10.511c-0.464-1.226-1.077-2.192-2.73-3.976c-0.26,2.137-1.931,3.083-3.008,4.96
				c-1.207-2.73,0.168-6.147-1.579-8.562c-10.045,3.64-20.668,6.128-29.154,12.053c-0.056-1.82,1.504-3.288,3.008-4.365
				c8.709-6.276,19.238-9.396,29.34-13.053c3.454-1.265,7.167-2.842,8.876-6.092c1.263-2.396,1.226-5.386,2.767-7.614
				c0.13-0.186,0.279-0.37,0.445-0.539c0.799,0.262,1.542,0.613,2.191,1.041c1.728,0.298,2.878,1.06,4.772,0.465
				C179.773,410.763,181.76,409.594,183.246,410.894z"/>
		</g>
		<g>
			<path fill="#516B85" d="M360.861,428.385c-3.121,1.967-8.895,0.557-10.511,0.89c-5.329,1.096-9.916,0.503-15.448-1.059
				c-0.613,2.749-3.457,7.484-6.035,8.636c0.649-2.154,0.129-8.505-0.631-10.604c-11.775-3.416-23.363-8.264-34.689-8.803
				c-0.188-0.018-0.372-0.036-0.557-0.036c-2.564,4.253-5.22,7.631-10.142,7.038c2.547-2.396,4.069-6.389,6.035-9.044
				c-4.791-3.788-7.333-5.663-10.786-11.254c5.849,0.893,9.709,2.044,13.888,7.855c10.4-4.939,22.545-7.094,33.278-2.916
				c-0.298-3.657-1.375-6.163-3.771-8.949c2.118-2.396,11.346,5.069,12.796,10.529c6.387,1.188,13.258,4.363,16.675,8.448
				c0.836,0.985,1.467,2.042,1.837,3.119c1.189,1.263,1.654,2.581,3.511,3.25C358.169,426.174,360.453,426.434,360.861,428.385z"/>
			<path fill="#58738F" d="M360.861,428.385c-3.121,1.967-8.895,0.557-10.511,0.89c-5.329,1.096-9.916,0.503-15.448-1.059
				c-0.613,2.749-3.457,7.484-6.035,8.636c0.649-2.154,0.129-8.505-0.631-10.604c-11.775-3.416-23.363-8.264-34.689-8.803
				c0.241-0.39,0.557-0.741,0.946-1.021c1.151-0.78,2.656-0.688,4.031-0.539c9.488,1.06,18.679,3.807,27.891,6.314
				c5.089,1.394,10.529,2.712,15.598,1.206c3.121-0.929,5.999-2.896,8.951-4.289c0.836,0.985,1.467,2.042,1.837,3.119
				c1.189,1.263,1.654,2.581,3.511,3.25C358.169,426.174,360.453,426.434,360.861,428.385z"/>
		</g>
		<path fill="#B0D8E6" d="M120.628,62.235c6.824-10.938,24.521-12.671,33.336-3.264c9.154-8.786,26.055-7.194,33.405,3.148
			c3.886-3.789,10.352-3.086,15.269-0.785c4.916,2.301,9.23,5.91,14.431,7.466c5.931,1.773,12.327,0.678,18.458,1.532
			c6.13,0.855,12.801,4.972,12.83,11.162c14.984-3.777,32.069,3.763,39.377,17.378l-242.837,1.405
			c0.152,1.433-6.054-4.544-4.208-9.45c1.847-4.907,7.401-8.113,12.573-7.261c-1.814-5.564,0.613-12.217,5.585-15.306
			c4.971-3.087,12.011-2.314,16.195,1.78c2.229-6.188,7.489-11.201,13.776-13.128c6.287-1.928,13.454-0.728,18.768,3.146
			C110.512,54.997,118.077,56.977,120.628,62.235z"/>
		<path fill="#BCE6F4" d="M111.117,94.09c5.324-2.138,10.959-4.317,16.638-3.494c5.677,0.823,11.171,5.863,10.307,11.535
			c3.688-1.177,7.898,0.919,9.898,4.234c1.998,3.315,2.066,7.519,1.017,11.244c-0.999,3.55-2.962,6.824-5.622,9.378
			c-4.498,4.32-11.992,6.299-17.006,2.591c-2.814,4.346-7.856,7.161-13.033,7.277c-5.176,0.115-10.339-2.472-13.346-6.687
			c-2.445,3.389-6.837,5.263-10.976,4.681c-4.138-0.58-7.845-3.589-9.263-7.521c-4.897,1.669-10.513,1.854-15.077-0.584
			c-4.563-2.437-7.667-7.876-6.428-12.899c1.239-5.023,7.5-8.445,12.049-5.982c-0.216-4.633,2.5-9.274,6.646-11.354
			c4.146-2.08,9.491-1.483,13.075,1.459c0.721-4.625,4.581-8.59,9.184-9.435C103.783,87.689,108.799,90.024,111.117,94.09z"/>
		<path fill="#BCE6F4" d="M361.911,43.598c2.282-4.658,7.182-7.92,12.357-8.229c5.177-0.309,10.429,2.348,13.247,6.702
			c3.1-3.999,8.879-5.673,13.635-3.947c4.755,1.725,8.121,6.713,7.937,11.77c4.958-2.088,10.479-3.875,15.635-2.335
			c5.154,1.54,9.12,7.821,6.405,12.465c4.799-1.356,10.392,1.097,12.647,5.546s0.925,10.409-3.007,13.478h-105.66
			c-4.679-0.837-8.032-6.146-7.049-10.796c0.98-4.65,6.2-7.933,10.818-6.805c-3.938-5.087-1.347-13.53,3.948-17.181
			C348.12,40.614,356.772,39.732,361.911,43.598z"/>
	</g>
	<g>
		<polygon fill="#FCBC6D" points="401.046,322.992 457.584,312.964 457.33,311.216 400.536,319.483 		"/>
		<polygon fill="#FCBC6D" points="139.824,309.415 139.824,337.014 259.632,337.014 258.593,334.39 248.611,309.415 		"/>
		<g>
			<path fill="#4A545E" d="M238.806,325.184h5.208c0.848,0,1.534-0.688,1.534-1.536v-5.504c0-0.847-0.687-1.534-1.534-1.534h-5.208
				c-0.848,0-1.535,0.688-1.535,1.534v5.504C237.271,324.496,237.958,325.184,238.806,325.184z"/>
			<path fill="#4A545E" d="M225.686,325.184h5.209c0.847,0,1.534-0.688,1.534-1.536v-5.504c0-0.847-0.688-1.534-1.534-1.534h-5.209
				c-0.847,0-1.534,0.688-1.534,1.534v5.504C224.151,324.496,224.839,325.184,225.686,325.184z"/>
			<path fill="#4A545E" d="M212.566,325.184h5.208c0.848,0,1.534-0.688,1.534-1.536v-5.504c0-0.847-0.687-1.534-1.534-1.534h-5.208
				c-0.848,0-1.535,0.688-1.535,1.534v5.504C211.031,324.496,211.719,325.184,212.566,325.184z"/>
			<path fill="#4A545E" d="M199.446,325.184h5.209c0.847,0,1.534-0.688,1.534-1.536v-5.504c0-0.847-0.688-1.534-1.534-1.534h-5.209
				c-0.848,0-1.534,0.688-1.534,1.534v5.504C197.912,324.496,198.598,325.184,199.446,325.184z"/>
			<path fill="#4A545E" d="M186.327,325.184h5.208c0.848,0,1.534-0.688,1.534-1.536v-5.504c0-0.847-0.686-1.534-1.534-1.534h-5.208
				c-0.848,0-1.535,0.688-1.535,1.534v5.504C184.792,324.496,185.479,325.184,186.327,325.184z"/>
			<path fill="#4A545E" d="M173.207,325.184h5.208c0.848,0,1.535-0.688,1.535-1.536v-5.504c0-0.847-0.688-1.534-1.535-1.534h-5.208
				c-0.848,0-1.534,0.688-1.534,1.534v5.504C171.672,324.496,172.358,325.184,173.207,325.184z"/>
			<path fill="#4A545E" d="M160.087,325.184h5.208c0.848,0,1.534-0.688,1.534-1.536v-5.504c0-0.847-0.687-1.534-1.534-1.534h-5.208
				c-0.848,0-1.535,0.688-1.535,1.534v5.504C158.552,324.496,159.239,325.184,160.087,325.184z"/>
			<path fill="#4A545E" d="M146.967,325.184h5.208c0.848,0,1.535-0.688,1.535-1.536v-5.504c0-0.847-0.687-1.534-1.535-1.534h-5.208
				c-0.848,0-1.534,0.688-1.534,1.534v5.504C145.433,324.496,146.119,325.184,146.967,325.184z"/>
		</g>
		<path fill="#E9AC64" d="M139.824,322.611v14.402h119.808l-1.039-2.624c-32.756-2.506-65.771,0.283-98.454-3.052
			c-5.652-0.589-11.517-1.418-16.224-4.609C142.331,325.64,140.912,324.22,139.824,322.611z"/>
		<path fill="#EDEEF0" d="M94.488,328.784c0,0,5.439,9.224,12.723,17.902c1.466,1.774,3.028,3.525,4.612,5.156
			c9.46,9.696,17.359,12.014,17.359,12.014h236.494c0,0,7.167-10.05,15.87-20.74c10.429-12.841,24.949-24.24,25.849-24.949
			c-2.271,0.448-75.822,14.899-186.785,18.186C144.932,338.575,94.488,328.784,94.488,328.784z"/>
		<path fill="#4A545E" d="M97.68,333.822c12.155,2.057,58.367,8.892,122.93,7c92.564-2.744,159.091-13.243,179.926-16.933
			l-0.355,0.33l-5.533,5.015h-0.025c-25.802,4.304-88.898,13.432-174.012,15.917c-59.691,1.773-103.679-3.95-119.596-6.458
			L97.68,333.822z"/>
		<rect x="202.05" y="125.541" fill="#FCBC6D" width="4.139" height="183.624"/>
		<rect x="197.912" y="211.271" fill="#4A545E" width="13.119" height="6.083"/>
		<rect x="310.529" y="125.541" fill="#FCBC6D" width="4.139" height="204.781"/>
		<rect x="308.106" y="181.919" fill="#4A545E" width="13.12" height="6.082"/>
		<rect x="224.151" y="294.636" fill="#FCBC6D" width="86.378" height="3.547"/>
		<rect x="310.529" y="293.688" fill="#FCBC6D" width="70.117" height="3.549"/>
		<rect x="98.771" y="294.636" fill="#FCBC6D" width="104.688" height="3.547"/>
		<path fill="#FFFFFF" d="M224.158,294.636h86.368V128.497c0,0-6.691,22.042-16.248,48.364
			c-7.779,21.497-17.477,45.832-26.937,63.38c-10.168,18.873-20.621,32.211-28.687,40.96
			C230.046,290.543,224.158,294.636,224.158,294.636z"/>
		<path fill="#FFFFFF" d="M96.592,294.636h105.146V128.497c0,0-4.21,16.011-11.186,36.87c-6.551,19.676-15.586,43.633-25.802,62.576
			C143.655,266.964,96.592,294.636,96.592,294.636z"/>
		<path fill="#FFFFFF" d="M380.646,297.236l76.176,13.811l-64.327-87.266c0.212,0.898,2.861,12.014,4.162,24.974
			c0.591,6.078,0.921,12.583,0.544,18.636c-0.377,6.432-2.317,11.849-4.753,16.246C387.552,292.577,380.646,297.236,380.646,297.236
			z"/>
		<path fill="#FFFFFF" d="M314.664,293.689h65.982l-59.407-107.251c0,0,6.479,41.41,5.298,60.921
			C325.354,266.87,314.664,293.689,314.664,293.689z"/>
		<polygon fill="#EDEEF0" points="396.414,232.95 398.249,231.459 316.503,125.541 314.668,127.032 		"/>
		<path fill="#EDEEF0" d="M96.592,294.636h35.971c2.648-0.758,5.25-1.703,7.781-2.861c13.48-6.126,24.027-17.597,31.099-30.58
			c7.071-12.983,10.95-27.48,13.717-42.001c3.358-17.689,5.179-35.663,5.393-53.661v-0.165
			c-6.551,19.676-15.586,43.633-25.802,62.576C143.655,266.964,96.592,294.636,96.592,294.636z"/>
		<path fill="#EDEEF0" d="M238.654,281.201c6.575,0.38,13.174,0.238,19.63-0.97c10.761-2.033,21.261-7.33,27.48-16.317
			c7.309-10.523,7.733-24.169,7.899-36.988c0.189-16.673,0.403-33.369,0.613-50.065c-7.779,21.497-17.477,45.832-26.937,63.38
			C257.173,259.114,246.72,272.452,238.654,281.201z"/>
		<path fill="#EDEEF0" d="M323.438,293.689h34.459c-0.237-1.468-0.664-2.933-1.229-4.329c-1.443-3.665-3.69-6.953-5.723-10.335
			c-5.158-8.632-8.917-18.091-11.094-27.905c2.224,9.601,0.735,20.008-4.067,28.616c1.538-6.599,1.183-13.622-1.041-20.031
			C333.136,271.602,329.28,283.189,323.438,293.689z"/>
		<path fill="#EDEEF0" d="M392.448,283.637c1.371,0.782,2.791,1.468,4.209,2.153c9.459,4.517,20.102,9.129,30.106,5.984
			c-7.972-15.634-18.14-30.154-30.106-43.02c0.591,6.078,0.921,12.583,0.544,18.636
			C396.824,273.822,394.884,279.239,392.448,283.637z"/>
		<path fill="#DFE1E6" d="M107.21,346.687c1.466,1.774,3.028,3.525,4.612,5.156c9.46,9.696,17.359,12.014,17.359,12.014h79.462
			c-16.91-1.82-33.795-3.665-50.705-5.485C140.58,356.501,122.725,354.445,107.21,346.687z"/>
		<path fill="#DFE1E6" d="M233.334,363.856h126.691c6.572-5.227,10.925-14.261,8.016-22.111
			c-34.622,11.28-70.759,17.949-107.131,19.794C251.709,362.013,242.368,362.201,233.334,363.856z"/>
		<polygon fill="#DB766C" points="171.672,125.541 206.189,125.541 206.189,116.869 171.672,116.869 177.408,121.205 		"/>
		<polygon fill="#DB766C" points="280.15,125.541 314.668,125.541 314.668,116.869 280.15,116.869 285.887,121.205 		"/>
	</g>
</g>
</svg>
