<?xml version="1.0" encoding="utf-8"?>
<!-- Generator: Adobe Illustrator 16.0.0, SVG Export Plug-In . SVG Version: 6.00 Build 0)  -->
<!DOCTYPE svg PUBLIC "-//W3C//DTD SVG 1.1//EN" "http://www.w3.org/Graphics/SVG/1.1/DTD/svg11.dtd">
<svg version="1.1" id="Layer_1" xmlns="http://www.w3.org/2000/svg" xmlns:xlink="http://www.w3.org/1999/xlink" x="0px" y="0px"
	 width="500px" height="500px" viewBox="0 0 500 500" enable-background="new 0 0 500 500" xml:space="preserve">
<g>
	<g>
		<path fill="#81C5D9" d="M498.693,116.356v251.058l-0.315,23.708c-0.411,5.284-1.154,10.455-2.234,15.519
			c-1.228,5.823-2.902,11.463-4.986,16.914c-5.415,14.347-13.604,27.315-23.894,38.295c-21.212,22.683-51.412,36.844-84.926,36.844
			H116.356c-37.087,0-70.116-17.343-91.403-44.379c-0.429-0.504-0.819-1.025-1.21-1.564c-5.303-6.94-9.844-14.514-13.491-22.571
			c-5.434-12.058-8.894-25.214-9.937-39.057C0.113,388.218,0,385.296,0,382.338V116.356C0,52.103,52.103,0,116.356,0h265.981
			C446.592,0,498.693,52.103,498.693,116.356z"/>
		<path fill="#998D85" d="M498.693,149.236v218.178l-0.315,23.708c-0.411,5.284-1.154,10.455-2.234,15.519
			c-1.228,5.823-2.902,11.463-4.986,16.914c-5.415,14.347-13.604,27.315-23.894,38.295c-21.212,22.683-51.412,36.844-84.926,36.844
			H116.356c-37.087,0-70.116-17.343-91.403-44.379c0.596-0.447,1.172-0.913,1.748-1.359c12.728-10.011,25.195-20.32,37.459-30.871
			c11.759-10.104,23.296-20.432,34.685-30.962c13.956-12.896,27.67-26.09,41.179-39.523c3.071-3.033,6.122-6.087,9.155-9.156
			c1.582-1.582,3.144-3.163,4.688-4.764c0-0.02,0.02-0.02,0.02-0.02c4.54-4.576,9.006-9.154,13.471-13.771
			c2.569-2.66,5.137-5.319,7.687-8c0,0,0-0.019,0.018-0.019c7.741-8.057,15.388-16.151,22.998-24.302
			c5.659-6.048,11.277-12.114,16.878-18.198c5.397-5.845,10.774-11.723,16.114-17.604c0.578-0.614,1.136-1.246,1.712-1.86
			c0.558-0.614,1.116-1.247,1.676-1.861c1.599-1.75,3.182-3.498,4.763-5.248c0.614-0.671,1.247-1.358,1.861-2.046
			c0.614-0.688,1.247-1.377,1.86-2.066c3.889-4.279,7.76-8.579,11.63-12.876c0.316-0.354,0.633-0.688,0.931-1.041
			c0.316-0.336,0.614-0.688,0.93-1.025c2.121-2.362,4.244-4.727,6.364-7.089c0.635-0.689,1.246-1.377,1.861-2.066
			c0.634-0.689,1.246-1.375,1.86-2.064c2.996-3.331,5.973-6.662,8.97-9.993c2.232-2.513,4.484-5.007,6.718-7.518
			c0.129-0.131,0.241-0.28,0.371-0.409c0.429-0.485,0.876-0.969,1.322-1.452c0.538-0.632,1.098-1.247,1.674-1.861
			c0.688-0.781,1.396-1.562,2.139-2.344c1.156-1.321,2.347-2.624,3.555-3.927c0.279-0.298,0.56-0.614,0.857-0.931
			c0.278-0.316,0.559-0.614,0.854-0.93c4.412-4.819,8.877-9.62,13.361-14.403c3.534-3.796,7.106-7.592,10.661-11.388
			c10.849-11.555,21.68-23.111,32.248-34.908c3.462,3.146,6.197,5.303,9.677,8.448c13.938-8.857,21.864-24.005,30.22-38.817
			c6.438-11.407,13.101-22.607,22.98-30.629c9.658,13.083,19.78,25.828,30.369,38.167c6.586,7.703,13.379,15.238,20.318,22.625
			c5.899-8.448,11.798-16.915,17.697-25.362C481.872,118.271,488.328,135.206,498.693,149.236z"/>
		<path fill="#7A716B" d="M496.144,406.641c-1.228,5.823-2.902,11.463-4.986,16.914c-5.415,14.347-13.604,27.315-23.894,38.295
			c-21.212,22.683-51.412,36.844-84.926,36.844H116.356c-37.087,0-70.116-17.343-91.403-44.379c-0.429-0.504-0.819-1.025-1.21-1.564
			c-5.303-6.94-9.844-14.514-13.491-22.571c-5.434-12.058-8.894-25.214-9.937-39.057C0.113,388.218,0,385.296,0,382.338V167.192
			c17.492-20.153,34.964-40.267,52.455-60.42c23.503-27.074,47.023-54.168,70.542-81.242c7.724,22.311,18.498,43.338,32.937,61.984
			c0.205,0.298,0.447,0.594,0.67,0.893c0.409-0.54,0.836-1.06,1.265-1.563c5.937-7.164,13.231-12.82,21.716-16.766
			c8.784,16.021,19.167,30.889,30.628,44.938c13.286,16.338,28.025,31.597,43.376,46.353c3.981,3.814,8.001,7.61,12.058,11.388
			c5.191,4.819,10.419,9.621,15.667,14.403c0.334,0.298,0.688,0.614,1.024,0.93c0.353,0.298,0.688,0.614,1.042,0.931
			c1.434,1.321,2.883,2.624,4.315,3.927c0.876,0.782,1.731,1.563,2.588,2.344c0.688,0.615,1.377,1.247,2.064,1.861
			c0.69,0.632,1.377,1.247,2.048,1.861c6.158,5.564,12.282,11.126,18.33,16.709c0.817,0.763,1.655,1.526,2.474,2.308
			c0.613,0.558,1.228,1.116,1.842,1.73c0.632,0.54,1.247,1.136,1.879,1.75c2.122,1.954,4.244,3.927,6.346,5.937
			c0.316,0.278,0.614,0.576,0.931,0.874c0.315,0.278,0.614,0.576,0.931,0.893c15.295,14.441,30.331,29.197,45.124,44.158
			c1.042,1.041,2.066,2.084,3.09,3.126c2.791,2.847,5.582,5.694,8.373,8.54c33.661,34.556,66.264,70.17,98.529,106.086
			C486.878,396.293,491.51,401.467,496.144,406.641z"/>
		<path fill="#675F5A" d="M498.693,225.994v141.42l-0.315,23.708c-0.411,5.284-1.154,10.455-2.234,15.519
			c-1.228,5.823-2.902,11.463-4.986,16.914c-5.415,14.347-13.604,27.315-23.894,38.295c-21.212,22.683-51.412,36.844-84.926,36.844
			h-123.8c5.826-14.531,12.637-28.656,20.003-42.519h0.021c5.562-10.458,11.461-20.767,17.509-30.982
			c4.243-7.184,8.561-14.291,12.878-21.382c2.586-4.241,5.174-8.466,7.778-12.688c7.127-11.63,14.31-23.225,21.548-34.798v-0.019
			c0.969-1.564,1.953-3.127,2.939-4.689c0-0.018,0.019-0.018,0.019-0.018c1.898-3.054,3.814-6.123,5.771-9.156
			c3.87-6.196,7.795-12.375,11.74-18.554c6.085-9.6,12.224-19.165,18.421-28.729c2.158-3.388,4.336-6.755,6.551-10.124
			c14.645-22.571,29.513-45.03,44.549-67.359c4.706,2.103,9.433,4.187,14.158,6.289c1.73-2.94,3.462-5.88,5.174-8.82
			c7.667-13.007,15.314-26.015,22.944-39.021c3.945,14.216,10.606,27.688,19.445,39.522
			C492.683,219.257,495.586,222.719,498.693,225.994z"/>
		<path fill="#7A716B" d="M394.283,104.428c0.038,0.391,0.057,0.818,0.021,1.247C394.209,105.246,394.209,104.837,394.283,104.428z"
			/>
		<path fill="#DBE0E2" d="M442.479,103.629c-5.044,1.208-10.384,1.152-15.353-0.262c-3.349-3.238-8.598,0.949-13.249,1.192
			c-2.623,0.129-5.099-1.08-7.461-2.215c-2.364-1.154-4.914-2.27-7.518-1.954c-2.178,0.278-4.3,1.992-4.616,4.038
			c-0.353-3.182-2.809-5.695-5.153-8.337c6.438-11.407,13.101-22.607,22.98-30.629C421.769,78.544,431.891,91.29,442.479,103.629z"
			/>
		<path fill="#41937F" d="M498.378,391.122c-0.411,5.284-1.154,10.455-2.234,15.519c-1.228,5.823-2.902,11.463-4.986,16.914
			c-5.415,14.347-13.604,27.315-23.894,38.295c-21.212,22.683-51.412,36.844-84.926,36.844H116.356
			c-37.087,0-70.116-17.343-91.403-44.379c-0.429-0.504-0.819-1.025-1.21-1.564c-5.303-6.94-9.844-14.514-13.491-22.571
			c-5.434-12.058-8.894-25.214-9.937-39.057H498.378z"/>
		<path fill="#DBE0E2" d="M155.935,87.514c-1.62,4.372-3.907,8.466-6.904,12.095c-2.01-1.452-4.577-2.084-7.014-1.75
			c-0.149,5.081-2.886,10.011-7.109,12.84c-2.01-5.341-10.011-4.968-14.794-1.861c-4.801,3.125-8.764,8.019-14.403,9.024
			c-2.771,0.503-5.619-0.036-8.392-0.576c-5.042-0.969-10.085-1.954-15.128-2.922c-9.453-1.822-20.859-3.051-27.223,4.205
			c0.316-4.149-0.726-8.038-2.512-11.797c23.501-27.074,47.021-54.167,70.541-81.242C130.721,47.841,141.495,68.868,155.935,87.514z
			"/>
		<path fill="#DBE0E2" d="M210.213,115.015c-9.062-2.008-17.993-6.735-27.148-9.081c-2.195-0.558-4.465-0.985-6.4-2.177
			c-1.935-1.19-3.462-3.349-3.163-5.583c-2.997,2.066-7.333,1.359-10.18-0.93c-2.846-2.288-4.408-5.824-5.247-9.396
			c-0.074-0.334-0.149-0.671-0.205-1.005c5.937-7.164,13.231-12.82,21.716-16.766C188.369,86.1,198.751,100.967,210.213,115.015z"/>
		<path fill="#DBE0E2" d="M489.985,215.647c-6.179,1.267-12.524,1.583-18.795,0.931c-1.229-1.861-4.149-1.321-6.084-0.204
			c-1.936,1.116-4.001,2.679-6.179,2.139c-2.027-0.502-3.256-2.66-5.209-3.442c-1.862-0.745-3.965-0.056-5.974,0.075h-0.149
			c7.667-13.007,15.314-26.015,22.944-39.021C474.485,190.341,481.146,203.813,489.985,215.647z"/>
		<path fill="#3D8B79" d="M491.157,423.555c-5.415,14.347-13.604,27.315-23.894,38.295c-21.212,22.683-51.412,36.844-84.926,36.844
			H116.356c-37.087,0-70.116-17.343-91.403-44.379c-0.429-0.504-0.819-1.025-1.21-1.564c-5.303-6.94-9.844-14.514-13.491-22.571
			c18.125,1.508,35.933-3.609,53.908-8.095c11.088-2.772,22.235-5.284,33.531-5.862c29.251-1.449,57.405,10.217,86.359,14.646
			c37.122,5.675,74.712-0.669,112.019-5.675c3.965-0.522,7.928-1.041,11.873-1.526C368.735,416.261,430.384,416.186,491.157,423.555
			z"/>
		<path fill="#38806F" d="M467.264,461.85c-21.212,22.683-51.412,36.844-84.926,36.844H116.356
			c-37.087,0-70.116-17.343-91.403-44.379c-0.429-0.504-0.819-1.025-1.21-1.564c0.986,0.074,1.973,0.13,2.958,0.205
			c25.68,1.712,51.321,3.98,76.665,8.411c32.806,5.75,65.704,15.129,98.828,11.723c25.957-2.68,50.612-13.1,76.347-16.914h0.021
			c2.4-0.354,4.781-0.651,7.201-0.876c38.464-3.647,76.329,10.348,114.887,12.506C423.033,469.051,445.252,466.314,467.264,461.85z"
			/>
	</g>
	<g>
		<g>
			<polygon fill="#333E49" points="405.753,351.606 360.164,351.606 360.164,339.977 405.753,346.799 			"/>
		</g>
		<g>
			<rect x="64.181" y="316.252" fill="#8F969D" width="5.583" height="18.608"/>
		</g>
		<g>
			<path fill="#E9AC64" d="M67.405,334.207c0,9.62,7.777,17.399,17.398,17.399h270.839c13.585,0,24.601-11.017,24.601-24.601
				l-0.298-3.107l-3.126-32.322l-1.768-18.199l-8.746-90.47c-0.317-3.704-1.471-7.146-3.275-10.142
				c-4.132-6.867-11.63-11.388-20.134-11.388H105.161c-8.504,0-16.002,4.521-20.135,11.388c-1.804,2.997-2.977,6.457-3.274,10.178
				l-8.579,90.434l-1.712,18.199l-3.069,32.322L67.405,334.207z"/>
		</g>
		<g>
			<polygon fill="#333E49" points="346.432,392.691 355.649,392.691 355.649,351.606 337.215,351.606 			"/>
		</g>
		<g>
			<circle fill="#333E49" cx="398.272" cy="338.62" r="4.768"/>
		</g>
		<g>
			<rect x="396.275" y="337.573" fill="#333E49" width="3.992" height="9.071"/>
		</g>
		<g>
			<path fill="#EDEEF0" d="M164.315,192.396v57.201c0,2.38,1.936,4.318,4.318,4.318h68.123c1.285,0,2.438-0.56,3.22-1.452
				c0.688-0.763,1.098-1.768,1.098-2.866v-57.201c0-2.382-1.936-4.317-4.318-4.317h-68.123
				C166.251,188.079,164.315,190.014,164.315,192.396z"/>
		</g>
		<g>
			<path fill="#EDEEF0" d="M93.009,253.915h57.685c2.215,0,4.019-1.807,4.019-4.02v-57.797c0-2.213-1.804-4.02-4.019-4.02H99.745
				c-2.046,0-3.758,1.544-4.001,3.555l-1.19,10.142l-5.544,47.655C88.729,251.811,90.59,253.915,93.009,253.915z"/>
		</g>
		<g>
			<path fill="#EDEEF0" d="M67.405,334.207c0,2.996,0.745,5.788,2.066,8.243c2.94,5.454,8.69,9.156,15.332,9.156h270.839
				c7.74,0,14.644-3.574,19.149-9.156c3.402-4.224,5.451-9.603,5.451-15.444l-0.298-3.107H68.392L67.405,334.207z"/>
		</g>
		<g>
			<path fill="#FCBC6D" d="M85.026,172.765h278.003c-4.132-6.867-11.63-11.388-20.134-11.388H105.161
				C96.656,161.377,89.158,165.898,85.026,172.765z"/>
		</g>
		<g>
			<path fill="#FCBC6D" d="M261.078,188.089h59.542c3.084,0,5.584,2.499,5.584,5.584v136.531c0,3.084-2.5,5.586-5.584,5.586h-59.542
				c-3.083,0-5.584-2.502-5.584-5.586V193.673C255.494,190.588,257.995,188.089,261.078,188.089z"/>
		</g>
		<g>
			<polygon fill="#B3E0E2" points="71.461,291.576 376.818,291.576 375.051,273.377 73.173,273.377 			"/>
		</g>
		<g>
			<path fill="#9C8276" d="M320.615,187.159h-59.526c-3.61,0-6.532,2.922-6.532,6.513v136.527c0,3.59,2.922,6.513,6.532,6.513
				h59.526c3.592,0,6.513-2.923,6.513-6.513V193.672C327.128,190.081,324.207,187.159,320.615,187.159z M325.267,330.199
				c0,2.566-2.084,4.651-4.651,4.651h-59.526c-2.569,0-4.672-2.085-4.672-4.651V193.672c0-2.568,2.103-4.652,4.672-4.652h59.526
				c2.567,0,4.651,2.084,4.651,4.652V330.199z"/>
		</g>
		<g>
			<path fill="#EDEEF0" d="M264.649,203.152v41.365c0,3.313,2.68,5.993,5.973,5.993h40.455c3.292,0,5.973-2.68,5.973-5.993v-41.365
				c0-3.313-2.681-5.991-5.973-5.991h-40.455C267.329,197.161,264.649,199.839,264.649,203.152z"/>
		</g>
		<g>
			<path fill="#D5D8DC" d="M164.315,192.396v57.201c0,2.38,1.936,4.318,4.318,4.318h68.123c1.285,0,2.438-0.56,3.22-1.452
				c0.688-0.763,1.098-1.768,1.098-2.866v-13.491c-1.602-0.298-3.313-0.372-4.912-0.429c-13.323-0.483-26.778-3.573-38.073-10.662
				c-11.312-7.09-20.246-18.458-22.7-31.577c-0.336-1.769-0.541-3.555-0.764-5.361h-5.991
				C166.251,188.079,164.315,190.014,164.315,192.396z"/>
		</g>
		<g>
			<path fill="#D5D8DC" d="M93.009,253.915h57.685c2.215,0,4.019-1.807,4.019-4.02v-7.833c-3.442-2.364-8-2.865-12.151-3.871
				c-12.728-3.033-23.892-12.115-29.437-23.967c-3.127-6.718-4.503-14.105-5.788-21.419c-0.28-1.563-0.558-3.164-0.987-4.727h-6.605
				c-2.046,0-3.758,1.544-4.001,3.555l-1.19,10.142l-5.544,47.655C88.729,251.811,90.59,253.915,93.009,253.915z"/>
		</g>
		<g>
			<rect x="59.956" y="317.415" fill="#D16A62" width="4.225" height="15.119"/>
		</g>
		<g>
			<path fill="#D5D8DC" d="M69.471,342.45c2.94,5.454,8.69,9.156,15.332,9.156h270.839c7.74,0,14.644-3.574,19.149-9.156H69.471z"/>
		</g>
		<g>
			<path fill="#5D7A96" d="M150.688,186.21h-50.95c-2.976,0-5.488,2.231-5.842,5.191l-6.736,57.814
				c-0.185,1.658,0.334,3.331,1.452,4.577c1.116,1.267,2.717,1.974,4.392,1.974h57.685c3.256,0,5.878-2.624,5.878-5.88v-57.795
				C156.566,188.853,153.944,186.21,150.688,186.21z M152.845,249.886c0,1.19-0.967,2.159-2.157,2.159H93.003
				c-0.634,0-1.21-0.241-1.621-0.727c-0.409-0.465-0.594-1.06-0.52-1.674l6.736-57.797c0.129-1.079,1.041-1.915,2.139-1.915h50.95
				c1.19,0,2.157,0.967,2.157,2.159V249.886z"/>
		</g>
		<g>
			<path fill="#5D7A96" d="M236.768,186.229h-68.143c-3.405,0-6.178,2.772-6.178,6.178v57.2c0,3.405,2.773,6.16,6.178,6.16h68.143
				c3.406,0,6.158-2.755,6.158-6.16v-57.2C242.926,189.001,240.174,186.229,236.768,186.229z M239.205,249.607
				c0,1.341-1.098,2.438-2.437,2.438h-68.143c-1.359,0-2.457-1.097-2.457-2.438v-57.2c0-1.359,1.098-2.457,2.457-2.457h68.143
				c1.339,0,2.437,1.098,2.437,2.457V249.607z"/>
		</g>
		<g>
			<path fill="#D5D8DC" d="M264.649,203.152v41.365c0,3.313,2.68,5.993,5.973,5.993h40.455c3.292,0,5.973-2.68,5.973-5.993v-2.084
				c-8.431-0.836-16.841-2.139-24.414-5.806c-9.286-4.465-17.194-13.286-17.528-23.595c-0.131-3.963,0.855-7.926,0.391-11.854
				c-0.148-1.375-0.578-2.771-1.21-4.018h-3.666C267.329,197.161,264.649,199.839,264.649,203.152z"/>
		</g>
		<g>
			<path fill="#5D7A96" d="M311.069,195.291h-40.436c-4.337,0-7.853,3.535-7.853,7.853v41.385c0,4.317,3.516,7.833,7.853,7.833
				h40.436c4.336,0,7.852-3.516,7.852-7.833v-41.385C318.921,198.825,315.405,195.291,311.069,195.291z M315.2,244.528
				c0,2.27-1.861,4.112-4.131,4.112h-40.436c-2.288,0-4.131-1.842-4.131-4.112v-41.385c0-2.27,1.843-4.13,4.131-4.13h40.436
				c2.27,0,4.131,1.861,4.131,4.13V244.528z"/>
		</g>
		<g>
			<g>
				<circle fill="#333E49" cx="191.052" cy="352.623" r="40.069"/>
			</g>
			<g>
				<circle fill="#8F969D" cx="191.052" cy="352.623" r="26.071"/>
			</g>
			<g>
				<path fill="#D5D8DC" d="M168.482,352.623c0,12.435,10.107,22.541,22.542,22.541c8.732,0,16.353-4.974,20.057-12.221
					c1.641-3.071,2.541-6.618,2.541-10.32c0-12.436-10.107-22.542-22.597-22.542c-7.354,0-13.916,3.545-17.992,9.047
					C170.176,342.886,168.482,347.595,168.482,352.623z"/>
			</g>
			<g>
				<path fill="#EDEEF0" d="M173.032,339.128c0.265,2.328,0.794,4.605,1.693,6.827c2.223,5.45,6.509,9.895,11.643,12.806
					c5.133,2.911,11.007,4.34,16.827,4.656c2.646,0.16,5.344,0.107,7.885-0.474c1.641-3.071,2.541-6.618,2.541-10.32
					c0-12.436-10.107-22.542-22.597-22.542C183.67,330.081,177.108,333.626,173.032,339.128z"/>
			</g>
		</g>
	</g>
</g>
</svg>
