<?xml version="1.0" encoding="utf-8"?>
<!-- Generator: Adobe Illustrator 16.0.0, SVG Export Plug-In . SVG Version: 6.00 Build 0)  -->
<!DOCTYPE svg PUBLIC "-//W3C//DTD SVG 1.1//EN" "http://www.w3.org/Graphics/SVG/1.1/DTD/svg11.dtd">
<svg version="1.1" id="Layer_1" xmlns="http://www.w3.org/2000/svg" xmlns:xlink="http://www.w3.org/1999/xlink" x="0px" y="0px"
	 width="30px" height="70px" viewBox="0 0 30 70" enable-background="new 0 0 30 70" xml:space="preserve">
<g>
	<g>
		<g>
			<g>
				<path fill="#EEBA73" d="M20.708,52.541c0.691,1.644,0.647,3.575-0.112,5.185c-0.423,0.896-1.049,1.679-1.559,2.528
					c-0.51,0.851-0.912,1.818-0.815,2.806c-0.806-0.523-1.254-1.483-1.234-2.442c0.182,0.839,0.308,1.7,0.319,2.558
					c0.013,0.856-0.157,1.737-0.63,2.454c-0.513,0.774-1.393,1.422-1.39,2.351c0.027-0.377-0.332-0.67-0.579-0.958
					c-0.504-0.587-0.736-1.4-0.618-2.164c-0.415,0.339-0.619,0.92-0.506,1.443c-0.812-1.561-0.999-3.431-0.402-5.086
					c-0.825,0.465-1.383,1.35-1.501,2.285c-0.417-0.796-0.569-1.71-0.478-2.603c-0.264,0.478-0.808,0.782-1.35,0.717
					c0.519-0.802,0.517-1.797,0.297-2.726c-0.218-0.928-0.636-1.801-0.914-2.711c-0.434-1.414-0.526-2.93-0.271-4.387
					c2.683-0.812,5.413-1.19,8.206-0.964c0.703,0.06,1.414,0.152,2.071,0.403C19.902,51.485,20.434,51.892,20.708,52.541z"/>
			</g>
			<g>
				<path fill="#D16A62" d="M16.253,57.828c-0.447,0.579-0.562,1.349-0.551,2.08c0.01,0.73,0.129,1.461,0.086,2.189
					c-0.043,0.729-0.279,1.489-0.841,1.957c0.226-0.69,0.179-1.467-0.127-2.127c-0.254,0.253-0.445,0.571-0.549,0.913
					c-0.5-1.24-0.597-2.639-0.276-3.937c-0.59,0.689-1.18,1.377-1.77,2.066c-0.026-0.935,0.104-1.872,0.387-2.764
					c-0.624,0.307-1.132,0.838-1.407,1.478c0.349-0.547,0.321-1.25,0.21-1.888c-0.111-0.64-0.293-1.284-0.211-1.926
					c-0.528,0.344-0.845,0.989-0.796,1.619c-0.453-1.888,0.12-4.013,1.535-5.342c1.414-1.329,3.637-1.764,5.408-0.968
					c1.169,0.525,2.145,1.657,2.137,2.942c-0.01,1.483-1.273,2.805-1.055,4.271c-0.391-0.641-0.675-1.348-0.841-2.078
					c-0.624,0.67-0.972,1.596-0.935,2.514C16.391,58.571,16.241,58.197,16.253,57.828z"/>
			</g>
		</g>
		<g>
			<g>
				<rect x="7.788" y="49.366" fill="#8F969D" width="14.992" height="3.983"/>
			</g>
			<g>
				<g>
					<g>
						<rect x="9.756" y="49.365" fill="#BCC1C4" width="1.119" height="3.983"/>
					</g>
					<g>
						<rect x="10.479" y="49.365" fill="#767C82" width="0.396" height="3.981"/>
					</g>
				</g>
				<g>
					<g>
						<rect x="12.185" y="49.366" fill="#BCC1C4" width="1.119" height="3.981"/>
					</g>
					<g>
						<rect x="12.906" y="49.366" fill="#767C82" width="0.396" height="3.981"/>
					</g>
				</g>
				<g>
					<g>
						<rect x="14.615" y="49.365" fill="#BCC1C4" width="1.117" height="3.983"/>
					</g>
					<g>
						<rect x="15.337" y="49.364" fill="#767C82" width="0.396" height="3.983"/>
					</g>
				</g>
				<g>
					<g>
						<rect x="17.04" y="49.366" fill="#BCC1C4" width="1.118" height="3.981"/>
					</g>
					<g>
						<rect x="17.769" y="49.362" fill="#767C82" width="0.395" height="3.983"/>
					</g>
				</g>
				<g>
					<g>
						<rect x="19.47" y="49.366" fill="#BCC1C4" width="1.117" height="3.983"/>
					</g>
					<g>
						<rect x="20.194" y="49.366" fill="#767C82" width="0.396" height="3.981"/>
					</g>
				</g>
			</g>
			<g>
				<rect x="8.823" y="52.603" fill="#BCC1C4" width="12.7" height="0.745"/>
			</g>
		</g>
		<g>
			<polygon fill="#9EDBE8" points="5.303,60.196 9.005,53.348 8.885,51.816 7.902,39.138 7.799,37.82 7.788,37.667 7.71,37.735 
				1.682,43.285 0.619,44.261 4.617,57.864 			"/>
		</g>
		<g>
			<polygon fill="#9EDBE8" points="25.017,60.196 25.128,59.829 29.701,44.261 28.092,42.783 23.09,38.179 22.532,37.667 
				21.314,53.348 22.651,55.824 			"/>
		</g>
		<g>
			<polygon fill="#9EDBE8" points="8.67,50.76 21.67,50.76 25.491,23.922 24.433,23.922 7.586,23.924 4.85,23.924 8.422,49.021 
				8.596,50.234 			"/>
		</g>
		<g>
			<path fill="#E48177" d="M4.832,23.921h5.369l15.286,0.001c-0.021-4.957-1.043-8.94-2.439-12.076
				C21.35,8.028,19.104,5.47,17.441,3.95c-1.329-1.214-2.282-1.768-2.282-1.768s-8.8,5.093-10.151,18.4
				C4.898,21.643,4.836,22.755,4.832,23.921z"/>
		</g>
		<g>
			<g>
				<path fill="#D5D8DC" d="M15.285,32.799c1.622,0,2.937-1.314,2.937-2.937c0-0.384-0.077-0.751-0.21-1.087
					c-0.151-0.382-0.381-0.723-0.669-1.006c-0.531-0.521-1.258-0.842-2.058-0.842c-1.621,0-2.936,1.315-2.936,2.936
					c0,0.748,0.283,1.429,0.741,1.95c0.025,0.028,0.053,0.056,0.078,0.083C13.702,32.452,14.451,32.799,15.285,32.799z"/>
			</g>
			<g>
				<path fill="#EEF0F1" d="M14.016,31.938c1.884,0,3.414-1.529,3.412-3.414c0.002-0.26-0.03-0.514-0.085-0.755
					c-0.531-0.521-1.258-0.842-2.058-0.84c-1.621-0.002-2.936,1.313-2.936,2.934c0,0.748,0.283,1.429,0.741,1.95
					C13.383,31.893,13.694,31.938,14.016,31.938z"/>
			</g>
			<g>
				<path fill="#465E73" d="M15.284,26.647c-1.771,0-3.214,1.443-3.214,3.214c0,0.834,0.318,1.624,0.896,2.228
					c0.613,0.637,1.435,0.988,2.321,0.988c1.772,0,3.216-1.442,3.216-3.215c0-0.41-0.079-0.809-0.233-1.191
					C17.783,27.442,16.612,26.649,15.284,26.647z M17.42,28.284c0.132,0.18,0.244,0.379,0.331,0.595
					c0.127,0.315,0.19,0.646,0.188,0.985c0.002,1.464-1.189,2.657-2.655,2.654c-0.624,0-1.213-0.214-1.688-0.608
					c-0.079-0.063-0.156-0.131-0.227-0.208c-0.477-0.499-0.742-1.152-0.74-1.837c-0.002-1.465,1.19-2.658,2.655-2.655
					C16.146,27.209,16.928,27.615,17.42,28.284z"/>
			</g>
		</g>
		<g>
			<g>
				<path fill="#D5D8DC" d="M17.36,40.955c1.147-1.147,1.147-3.005,0-4.15c-0.272-0.272-0.585-0.479-0.916-0.621
					c-0.379-0.164-0.782-0.243-1.185-0.241c-0.744,0.01-1.485,0.296-2.05,0.861c-1.147,1.146-1.147,3.004,0,4.151
					c0.528,0.527,1.21,0.812,1.902,0.853c0.037,0.002,0.077,0.002,0.115,0.006C15.996,41.83,16.771,41.545,17.36,40.955z"/>
			</g>
			<g>
				<path fill="#EEF0F1" d="M15.854,41.243c1.333-1.333,1.333-3.494,0-4.827c-0.185-0.184-0.386-0.341-0.595-0.474
					c-0.744,0.01-1.485,0.297-2.05,0.862c-1.147,1.146-1.147,3.003,0,4.15c0.528,0.527,1.21,0.812,1.902,0.853
					C15.376,41.66,15.627,41.473,15.854,41.243z"/>
			</g>
			<g>
				<path fill="#465E73" d="M16.553,35.927c-1.214-0.525-2.605-0.257-3.542,0.682c-1.254,1.253-1.254,3.29,0,4.546
					c0.587,0.587,1.372,0.92,2.208,0.938c0.884,0.02,1.717-0.316,2.339-0.938c1.254-1.254,1.254-3.294,0-4.546
					C17.268,36.315,16.932,36.087,16.553,35.927z M17.163,40.757c-0.444,0.444-1.016,0.711-1.629,0.767
					c-0.101,0.01-0.202,0.014-0.303,0.014c-0.692-0.02-1.338-0.294-1.825-0.78c-1.036-1.036-1.036-2.718,0-3.754
					c0.609-0.609,1.449-0.877,2.27-0.748c0,0,0.001,0.003,0.004,0c0.222,0.032,0.438,0.096,0.652,0.186
					c0.312,0.135,0.592,0.322,0.831,0.562C18.2,38.039,18.2,39.721,17.163,40.757z"/>
			</g>
		</g>
		<g>
			<path fill="#90CDDA" d="M8.67,50.76h13l3.821-26.838h-1.059c-0.431,5.299-2.084,10.458-3.727,15.538
				c-0.654,2.022-1.341,4.105-2.735,5.713c-1.481,1.711-3.659,2.722-5.893,3.087c-1.226,0.197-2.561,0.251-3.656,0.761L8.67,50.76z"
				/>
		</g>
		<g>
			<path fill="#B3E2F2" d="M8.596,50.234c0.105-0.089,0.202-0.189,0.29-0.304c-0.365-8.063-0.724-16.124-1.088-24.186
				c-0.027-0.605-0.061-1.236-0.211-1.821H4.85l3.572,25.097L8.596,50.234z"/>
		</g>
		<g>
			<path fill="#B3E2F2" d="M4.617,57.864c0.175-2.26-0.439-4.592-0.928-6.844c-0.615-2.836-0.971-6.008,0.583-8.46
				c0.805-1.266,2.037-2.19,3.24-3.087c0.134-0.101,0.273-0.211,0.389-0.336L7.799,37.82c-0.012-0.015-0.025-0.024-0.04-0.039
				c-0.016-0.016-0.033-0.029-0.049-0.046l-6.028,5.55l-1.063,0.976L4.617,57.864z"/>
		</g>
		<g>
			<path fill="#B3E2F2" d="M25.128,59.829l4.573-15.568l-1.609-1.478l-5.002-4.604c0.012,0.47,0.338,0.894,0.649,1.266
				c0.774,0.922,1.549,1.848,2.322,2.774c0.727,0.867,1.478,1.779,1.734,2.879c0.336,1.446-0.229,2.925-0.705,4.331
				C25.957,52.782,25.296,56.29,25.128,59.829z"/>
		</g>
		<g>
			<path fill="#D9796F" d="M10.201,23.921l15.286,0.001c-0.021-4.957-1.043-8.94-2.439-12.076c-0.128,1.892-0.91,3.736-2.062,5.255
				c-1.464,1.939-3.489,3.393-5.637,4.53C13.688,22.51,11.945,23.218,10.201,23.921z"/>
		</g>
	</g>
</g>
</svg>
