<?xml version="1.0" encoding="utf-8"?>
<!-- Generator: Adobe Illustrator 16.0.0, SVG Export Plug-In . SVG Version: 6.00 Build 0)  -->
<!DOCTYPE svg PUBLIC "-//W3C//DTD SVG 1.1//EN" "http://www.w3.org/Graphics/SVG/1.1/DTD/svg11.dtd">
<svg version="1.1" id="Layer_1" xmlns="http://www.w3.org/2000/svg" xmlns:xlink="http://www.w3.org/1999/xlink" x="0px" y="0px"
	 width="500px" height="500px" viewBox="0 0 500 500" enable-background="new 0 0 500 500" xml:space="preserve">
<g>
	<g>
		<g>
			<path fill="#49809F" d="M499.548,117.341v266.193c0,5.699-0.408,11.286-1.212,16.761c-7.188,49.982-46.161,89.726-95.791,98.066
				c-6.314,1.062-12.812,1.621-19.442,1.621H116.91c-64.304,0-116.448-52.145-116.448-116.448V117.341
				C0.462,53.038,52.606,0.894,116.91,0.894h24.061c0.466-0.298,0.949-0.596,1.415-0.894h123.003
				c-0.615,0.298-1.248,0.578-1.862,0.894h119.576c2.348,0,4.655,0.075,6.966,0.205c0.018,0,0.018,0,0.038,0h0.018
				C451.168,4.73,499.548,55.402,499.548,117.341z"/>
			<path fill="#497B99" d="M499.548,117.341v266.193c0,5.699-0.408,11.286-1.212,16.761c-14.242,19.573-30.353,38.492-48.285,56.426
				c-15.196,15.197-31.1,29.087-47.506,41.641c-6.314,1.062-12.812,1.621-19.442,1.621H116.91
				c-64.304,0-116.448-52.145-116.448-116.448V138.012c16.724-25.065,36.427-49.22,59.053-71.846
				c1.396-1.396,2.812-2.793,4.228-4.19c1.376-1.322,2.755-2.645,4.133-3.947c0,0,0-0.019,0.019-0.019
				c3.092-2.961,6.184-5.848,9.33-8.679c1.435-1.303,2.886-2.607,4.339-3.873c19.032-16.797,38.94-31.658,59.407-44.564
				c0.466-0.298,0.949-0.596,1.415-0.894h123.003c-0.615,0.298-1.248,0.578-1.862,0.894h119.576c2.348,0,4.655,0.075,6.966,0.205
				c0.018,0,0.018,0,0.038,0h0.018C451.168,4.73,499.548,55.402,499.548,117.341z"/>
			<path fill="#457493" d="M499.548,117.341v165.722c-19.535,34.622-44.376,69.241-74.116,102.222
				c-1.787,2.012-3.613,4.003-5.457,5.996c-1.675,1.806-3.369,3.613-5.083,5.419c-1.042,1.117-2.086,2.217-3.148,3.315
				c-1.563,1.62-3.127,3.239-4.71,4.842c-1.452,1.488-2.924,2.979-4.395,4.449l-1.397,1.397
				c-14.638,14.563-29.704,28.139-45.029,40.653c-0.838,0.689-1.694,1.378-2.533,2.067c-0.633,0.502-1.266,1.023-1.898,1.528
				c-0.485,0.392-0.951,0.764-1.436,1.135c-0.409,0.336-0.8,0.652-1.209,0.97c-0.858,0.688-1.695,1.357-2.553,2.011
				c-19.554,15.345-39.497,29.014-59.479,40.914H116.91c-64.304,0-116.448-52.145-116.448-116.448V257.589
				c25.066-48.997,60.99-98.532,106.466-144.01C156.296,64.193,210.47,26.109,263.526,0.894h119.576
				c2.348,0,4.655,0.075,6.966,0.205c0.018,0,0.018,0,0.038,0h0.018C451.168,4.73,499.548,55.402,499.548,117.341z"/>
			<path fill="#466E8B" d="M499.548,117.341v77.117c-21.696,60.6-64.525,127.155-124.565,187.195
				c-54.768,54.77-114.939,95.2-171.085,118.329H116.91c-64.304,0-116.448-52.145-116.448-116.448v-23.333
				c16.519-68.439,63.392-148.238,134.12-218.967C218.348,57.47,314.833,7.17,390.068,1.099c0.018,0,0.018,0,0.038,0h0.018
				C451.168,4.73,499.548,55.402,499.548,117.341z"/>
			
				<ellipse transform="matrix(0.7071 0.7071 -0.7071 0.7071 259.4908 -103.5815)" fill="#446784" cx="254.78" cy="261.443" rx="142.928" ry="287.431"/>
			<path fill="#44617E" d="M336.409,343.073c-97.94,97.939-213.884,140.789-258.968,95.706
				c-45.082-45.082-2.231-161.025,95.709-258.966c97.942-97.941,213.884-140.792,258.968-95.709
				C477.197,129.188,434.351,245.132,336.409,343.073z"/>
		</g>
		<g>
			<g>
				<path fill="#FDFAE1" d="M101.521,60.407c0,0-9.74,3.444-21.756,3.444c-12.016,0-21.758-3.444-21.758-3.444
					s9.742-3.444,21.758-3.444C91.781,56.963,101.521,60.407,101.521,60.407z"/>
				<path fill="#FDFAE1" d="M79.765,38.65c0,0,3.444,9.74,3.444,21.756s-3.444,21.757-3.444,21.757s-3.444-9.741-3.444-21.757
					S79.765,38.65,79.765,38.65z"/>
			</g>
			<g>
				<path fill="#FDFAE1" d="M447.449,280.245c0,0-8.073,2.855-18.032,2.855c-9.958,0-18.033-2.855-18.033-2.855
					s8.075-2.854,18.033-2.854C439.376,277.392,447.449,280.245,447.449,280.245z"/>
				<path fill="#FDFAE1" d="M429.417,262.214c0,0,2.854,8.072,2.854,18.031c0,9.961-2.854,18.034-2.854,18.034
					s-2.855-8.073-2.855-18.034C426.562,270.286,429.417,262.214,429.417,262.214z"/>
			</g>
			<g>
				<path fill="#FBEAB2" d="M311.072,416.148c0,0-6.513,2.303-14.546,2.303c-8.031,0-14.543-2.303-14.543-2.303
					s6.512-2.302,14.543-2.302C304.56,413.847,311.072,416.148,311.072,416.148z"/>
				<path fill="#FBEAB2" d="M296.526,401.605c0,0,2.303,6.511,2.303,14.543c0,8.033-2.303,14.544-2.303,14.544
					s-2.303-6.511-2.303-14.544C294.224,408.116,296.526,401.605,296.526,401.605z"/>
			</g>
			<g>
				<path fill="#FBEAB2" d="M83.606,241.365c0,0-5.73,2.026-12.799,2.026s-12.799-2.026-12.799-2.026s5.73-2.026,12.799-2.026
					S83.606,241.365,83.606,241.365z"/>
				<path fill="#FBEAB2" d="M70.807,228.566c0,0,2.026,5.73,2.026,12.799s-2.026,12.799-2.026,12.799s-2.026-5.73-2.026-12.799
					S70.807,228.566,70.807,228.566z"/>
			</g>
			<g>
				<path fill="#FEF2CA" d="M171.48,181.015c0,0-6.685,2.364-14.931,2.364c-8.248,0-14.933-2.364-14.933-2.364
					s6.685-2.363,14.933-2.363C164.795,178.652,171.48,181.015,171.48,181.015z"/>
				<path fill="#FEF2CA" d="M156.549,166.083c0,0,2.364,6.686,2.364,14.932c0,8.247-2.364,14.932-2.364,14.932
					s-2.364-6.685-2.364-14.932C154.185,172.769,156.549,166.083,156.549,166.083z"/>
			</g>
			<g>
				<g>
					<path fill="#FEF2CA" d="M288.67,90.866c0,0-9.74,3.444-21.756,3.444s-21.756-3.444-21.756-3.444s9.74-3.444,21.756-3.444
						S288.67,90.866,288.67,90.866z"/>
					<path fill="#FEF2CA" d="M266.914,69.109c0,0,3.445,9.741,3.445,21.756c0,12.017-3.445,21.757-3.445,21.757
						s-3.444-9.74-3.444-21.757C263.47,78.85,266.914,69.109,266.914,69.109z"/>
				</g>
				<g>
					<path fill="#FEF2CA" d="M278.495,79.286c0,0-3.352,7.018-9.748,13.413c-6.394,6.396-13.412,9.748-13.412,9.748
						s3.351-7.019,9.746-13.415C271.478,82.636,278.495,79.286,278.495,79.286z"/>
					<path fill="#FEF2CA" d="M255.335,79.286c0,0,7.019,3.351,13.412,9.747c6.396,6.396,9.748,13.415,9.748,13.415
						s-7.018-3.352-13.414-9.748C258.686,86.304,255.335,79.286,255.335,79.286z"/>
				</g>
			</g>
			<g>
				<g>
					<path fill="#FEF2CA" d="M104.048,153.455c0,0-5.054,1.788-11.292,1.788c-6.236,0-11.292-1.788-11.292-1.788
						s5.056-1.788,11.292-1.788C98.994,151.667,104.048,153.455,104.048,153.455z"/>
					<path fill="#FEF2CA" d="M92.756,142.163c0,0,1.788,5.056,1.788,11.292c0,6.237-1.788,11.292-1.788,11.292
						s-1.788-5.055-1.788-11.292C90.968,147.219,92.756,142.163,92.756,142.163z"/>
				</g>
				<g>
					<path fill="#FEF2CA" d="M98.766,147.444c0,0-1.738,3.643-5.058,6.962c-3.32,3.319-6.963,5.059-6.963,5.059
						s1.74-3.643,5.06-6.962C95.125,149.184,98.766,147.444,98.766,147.444z"/>
					<path fill="#FEF2CA" d="M86.745,147.444c0,0,3.643,1.74,6.963,5.06c3.319,3.319,5.058,6.962,5.058,6.962
						s-3.641-1.74-6.961-5.059C88.485,151.087,86.745,147.444,86.745,147.444z"/>
				</g>
			</g>
			<g>
				<g>
					<path fill="#FFF8E7" d="M383.141,344.512c0,0-5.056,1.79-11.292,1.79c-6.235,0-11.291-1.79-11.291-1.79
						s5.056-1.786,11.291-1.786C378.085,342.726,383.141,344.512,383.141,344.512z"/>
					<path fill="#FFF8E7" d="M371.849,333.22c0,0,1.787,5.056,1.787,11.292c0,6.237-1.787,11.293-1.787,11.293
						s-1.788-5.056-1.788-11.293C370.061,338.275,371.849,333.22,371.849,333.22z"/>
				</g>
				<g>
					<path fill="#FFF8E7" d="M377.859,338.503c0,0-1.738,3.641-5.06,6.962c-3.318,3.318-6.962,5.057-6.962,5.057
						s1.739-3.641,5.06-6.961C374.217,340.241,377.859,338.503,377.859,338.503z"/>
					<path fill="#FFF8E7" d="M365.838,338.503c0,0,3.644,1.738,6.962,5.058c3.321,3.32,5.06,6.961,5.06,6.961
						s-3.643-1.738-6.962-5.057C367.577,342.144,365.838,338.503,365.838,338.503z"/>
				</g>
			</g>
			<g>
				<g>
					<path fill="#FCE39C" d="M155.167,458.145c0,0-5.056,1.788-11.292,1.788c-6.238,0-11.293-1.788-11.293-1.788
						s5.056-1.787,11.293-1.787C150.111,456.357,155.167,458.145,155.167,458.145z"/>
					<path fill="#FCE39C" d="M143.875,446.853c0,0,1.788,5.056,1.788,11.292c0,6.235-1.788,11.293-1.788,11.293
						s-1.788-5.058-1.788-11.293C142.087,451.908,143.875,446.853,143.875,446.853z"/>
				</g>
				<g>
					<path fill="#FCE39C" d="M149.886,452.134c0,0-1.74,3.643-5.06,6.962c-3.319,3.32-6.961,5.06-6.961,5.06
						s1.739-3.644,5.058-6.962C146.243,453.874,149.886,452.134,149.886,452.134z"/>
					<path fill="#FCE39C" d="M137.865,452.134c0,0,3.643,1.74,6.961,5.06c3.319,3.318,5.06,6.962,5.06,6.962
						s-3.643-1.739-6.963-5.06C139.604,455.776,137.865,452.134,137.865,452.134z"/>
				</g>
			</g>
			<g>
				<g>
					<path fill="#FCE39C" d="M61.266,341.018c0,0-5.056,1.788-11.292,1.788c-6.236,0-11.292-1.788-11.292-1.788
						s5.056-1.787,11.292-1.787C56.21,339.23,61.266,341.018,61.266,341.018z"/>
					<path fill="#FCE39C" d="M49.975,329.727c0,0,1.787,5.053,1.787,11.291c0,6.236-1.787,11.293-1.787,11.293
						s-1.788-5.057-1.788-11.293C48.187,334.779,49.975,329.727,49.975,329.727z"/>
				</g>
				<g>
					<path fill="#FCE39C" d="M55.985,335.007c0,0-1.739,3.644-5.06,6.962c-3.319,3.319-6.961,5.06-6.961,5.06
						s1.739-3.643,5.06-6.963C52.342,336.746,55.985,335.007,55.985,335.007z"/>
					<path fill="#FCE39C" d="M43.964,335.007c0,0,3.643,1.739,6.961,5.059c3.321,3.32,5.06,6.963,5.06,6.963s-3.643-1.74-6.961-5.06
						C45.703,338.65,43.964,335.007,43.964,335.007z"/>
				</g>
			</g>
			<g>
				<g>
					<path fill="#FFF8E7" d="M69.301,412.482c0,0-5.056,1.787-11.294,1.787c-6.236,0-11.292-1.787-11.292-1.787
						s5.055-1.788,11.292-1.788C64.245,410.694,69.301,412.482,69.301,412.482z"/>
					<path fill="#FFF8E7" d="M58.007,401.191c0,0,1.788,5.056,1.788,11.291c0,6.236-1.788,11.292-1.788,11.292
						s-1.786-5.056-1.786-11.292C56.221,406.247,58.007,401.191,58.007,401.191z"/>
				</g>
				<g>
					<path fill="#FFF8E7" d="M64.02,406.472c0,0-1.74,3.644-5.059,6.962c-3.321,3.321-6.964,5.06-6.964,5.06s1.74-3.643,5.06-6.962
						C60.375,408.211,64.02,406.472,64.02,406.472z"/>
					<path fill="#FFF8E7" d="M51.997,406.472c0,0,3.643,1.739,6.964,5.06c3.319,3.319,5.059,6.962,5.059,6.962
						s-3.645-1.738-6.963-5.06C53.737,410.115,51.997,406.472,51.997,406.472z"/>
				</g>
			</g>
			<g>
				<g>
					<path fill="#FFF8E7" d="M195.422,113.45c0,0-5.056,1.788-11.292,1.788c-6.236,0-11.292-1.788-11.292-1.788
						s5.056-1.788,11.292-1.788C190.367,111.663,195.422,113.45,195.422,113.45z"/>
					<path fill="#FFF8E7" d="M184.13,102.159c0,0,1.788,5.054,1.788,11.292c0,6.236-1.788,11.292-1.788,11.292
						s-1.788-5.056-1.788-11.292C182.343,107.213,184.13,102.159,184.13,102.159z"/>
				</g>
				<g>
					<path fill="#FFF8E7" d="M190.141,107.44c0,0-1.738,3.642-5.06,6.961c-3.319,3.32-6.961,5.059-6.961,5.059
						s1.74-3.642,5.059-6.962C186.498,109.179,190.141,107.44,190.141,107.44z"/>
					<path fill="#FFF8E7" d="M178.12,107.44c0,0,3.643,1.739,6.961,5.058c3.321,3.32,5.06,6.962,5.06,6.962
						s-3.643-1.739-6.962-5.059C179.86,111.082,178.12,107.44,178.12,107.44z"/>
				</g>
			</g>
			<g>
				<g>
					<path fill="#FFF8E7" d="M55.255,147.444c0,0-5.055,1.788-11.292,1.788c-6.236,0-11.292-1.788-11.292-1.788
						s5.056-1.788,11.292-1.788C50.2,145.656,55.255,147.444,55.255,147.444z"/>
					<path fill="#FFF8E7" d="M43.964,136.152c0,0,1.788,5.056,1.788,11.292c0,6.237-1.788,11.292-1.788,11.292
						s-1.788-5.055-1.788-11.292C42.176,141.208,43.964,136.152,43.964,136.152z"/>
				</g>
				<g>
					<path fill="#FFF8E7" d="M49.975,141.433c0,0-1.74,3.643-5.06,6.963c-3.319,3.319-6.961,5.059-6.961,5.059
						s1.74-3.643,5.059-6.962C46.332,143.173,49.975,141.433,49.975,141.433z"/>
					<path fill="#FFF8E7" d="M37.954,141.433c0,0,3.643,1.74,6.961,5.06c3.319,3.319,5.06,6.962,5.06,6.962s-3.643-1.74-6.962-5.059
						C39.694,145.076,37.954,141.433,37.954,141.433z"/>
				</g>
			</g>
			<g>
				<g>
					<path fill="#FCE39C" d="M155.167,90.866c0,0-5.056,1.788-11.292,1.788c-6.238,0-11.293-1.788-11.293-1.788
						s5.056-1.788,11.293-1.788C150.111,89.078,155.167,90.866,155.167,90.866z"/>
					<path fill="#FCE39C" d="M143.875,79.574c0,0,1.788,5.055,1.788,11.292c0,6.237-1.788,11.293-1.788,11.293
						s-1.788-5.056-1.788-11.293C142.087,84.629,143.875,79.574,143.875,79.574z"/>
				</g>
				<g>
					<path fill="#FCE39C" d="M149.886,84.855c0,0-1.74,3.643-5.06,6.963c-3.319,3.319-6.961,5.058-6.961,5.058
						s1.739-3.643,5.058-6.961C146.243,86.594,149.886,84.855,149.886,84.855z"/>
					<path fill="#FCE39C" d="M137.865,84.855c0,0,3.643,1.739,6.961,5.06c3.319,3.319,5.06,6.961,5.06,6.961
						s-3.643-1.739-6.963-5.058C139.604,88.498,137.865,84.855,137.865,84.855z"/>
				</g>
			</g>
			<g>
				<g>
					<path fill="#FCE39C" d="M222.995,47.122c0,0-5.056,1.788-11.292,1.788c-6.238,0-11.293-1.788-11.293-1.788
						s5.056-1.788,11.293-1.788C217.938,45.334,222.995,47.122,222.995,47.122z"/>
					<path fill="#FCE39C" d="M211.703,35.829c0,0,1.786,5.056,1.786,11.293c0,6.236-1.786,11.292-1.786,11.292
						s-1.79-5.056-1.79-11.292C209.913,40.885,211.703,35.829,211.703,35.829z"/>
				</g>
				<g>
					<path fill="#FCE39C" d="M217.711,41.111c0,0-1.739,3.642-5.058,6.962c-3.321,3.32-6.964,5.059-6.964,5.059
						s1.741-3.642,5.06-6.962C214.07,42.85,217.711,41.111,217.711,41.111z"/>
					<path fill="#FCE39C" d="M205.69,41.111c0,0,3.643,1.739,6.964,5.059c3.319,3.32,5.058,6.962,5.058,6.962
						s-3.641-1.739-6.962-5.059C207.431,44.753,205.69,41.111,205.69,41.111z"/>
				</g>
			</g>
			<g>
				<g>
					<path fill="#FCE39C" d="M437.854,64.655c0,0-5.056,1.788-11.292,1.788c-6.235,0-11.291-1.788-11.291-1.788
						s5.056-1.788,11.291-1.788C432.798,62.867,437.854,64.655,437.854,64.655z"/>
					<path fill="#FCE39C" d="M426.562,53.363c0,0,1.788,5.056,1.788,11.292c0,6.237-1.788,11.292-1.788,11.292
						s-1.787-5.055-1.787-11.292C424.774,58.419,426.562,53.363,426.562,53.363z"/>
				</g>
				<g>
					<path fill="#FCE39C" d="M432.572,58.644c0,0-1.74,3.643-5.06,6.963c-3.318,3.319-6.962,5.059-6.962,5.059
						s1.739-3.643,5.06-6.962C428.93,60.384,432.572,58.644,432.572,58.644z"/>
					<path fill="#FCE39C" d="M420.551,58.644c0,0,3.644,1.74,6.962,5.06c3.319,3.319,5.06,6.962,5.06,6.962s-3.643-1.74-6.962-5.059
						C422.29,62.287,420.551,58.644,420.551,58.644z"/>
				</g>
			</g>
			<g>
				<g>
					<path fill="#FCE39C" d="M352.98,70.666c0,0-5.056,1.788-11.292,1.788s-11.292-1.788-11.292-1.788s5.056-1.788,11.292-1.788
						S352.98,70.666,352.98,70.666z"/>
					<path fill="#FCE39C" d="M341.688,59.374c0,0,1.788,5.056,1.788,11.292s-1.788,11.292-1.788,11.292s-1.787-5.056-1.787-11.292
						S341.688,59.374,341.688,59.374z"/>
				</g>
				<g>
					<path fill="#FCE39C" d="M347.699,64.655c0,0-1.738,3.643-5.06,6.962c-3.319,3.319-6.962,5.06-6.962,5.06s1.74-3.643,5.06-6.962
						C344.057,66.395,347.699,64.655,347.699,64.655z"/>
					<path fill="#FCE39C" d="M335.678,64.655c0,0,3.643,1.74,6.962,5.06c3.321,3.319,5.06,6.962,5.06,6.962s-3.643-1.74-6.962-5.06
						S335.678,64.655,335.678,64.655z"/>
				</g>
			</g>
			<g>
				<g>
					<path fill="#FCE39C" d="M466.881,211.42c0,0-5.057,1.788-11.292,1.788c-6.236,0-11.292-1.788-11.292-1.788
						s5.056-1.788,11.292-1.788C461.824,209.632,466.881,211.42,466.881,211.42z"/>
					<path fill="#FCE39C" d="M455.589,200.127c0,0,1.788,5.056,1.788,11.293c0,6.236-1.788,11.292-1.788,11.292
						s-1.787-5.056-1.787-11.292C453.802,205.183,455.589,200.127,455.589,200.127z"/>
				</g>
				<g>
					<path fill="#FCE39C" d="M461.6,205.41c0,0-1.739,3.643-5.06,6.962c-3.319,3.32-6.962,5.059-6.962,5.059s1.74-3.643,5.06-6.962
						C457.956,207.149,461.6,205.41,461.6,205.41z"/>
					<path fill="#FCE39C" d="M449.578,205.41c0,0,3.643,1.739,6.962,5.059c3.32,3.32,5.06,6.962,5.06,6.962
						s-3.644-1.739-6.962-5.059C451.318,209.053,449.578,205.41,449.578,205.41z"/>
				</g>
			</g>
			<g>
				<g>
					<path fill="#FCE39C" d="M239.233,145.656c0,0-5.056,1.788-11.292,1.788c-6.236,0-11.292-1.788-11.292-1.788
						s5.056-1.788,11.292-1.788C234.177,143.868,239.233,145.656,239.233,145.656z"/>
					<path fill="#FCE39C" d="M227.941,134.364c0,0,1.788,5.056,1.788,11.292c0,6.237-1.788,11.292-1.788,11.292
						s-1.787-5.055-1.787-11.292C226.154,139.42,227.941,134.364,227.941,134.364z"/>
				</g>
				<g>
					<path fill="#FCE39C" d="M233.952,139.646c0,0-1.741,3.643-5.06,6.963c-3.319,3.319-6.961,5.059-6.961,5.059
						s1.739-3.643,5.058-6.962C230.309,141.385,233.952,139.646,233.952,139.646z"/>
					<path fill="#FCE39C" d="M221.931,139.646c0,0,3.643,1.74,6.961,5.06c3.319,3.319,5.06,6.962,5.06,6.962
						s-3.643-1.74-6.963-5.059C223.669,143.289,221.931,139.646,221.931,139.646z"/>
				</g>
			</g>
			<g>
				<g>
					<path fill="#FCE39C" d="M358.991,452.134c0,0-5.055,1.788-11.292,1.788c-6.236,0-11.292-1.788-11.292-1.788
						s5.056-1.787,11.292-1.787C353.937,450.347,358.991,452.134,358.991,452.134z"/>
					<path fill="#FCE39C" d="M347.699,440.842c0,0,1.788,5.056,1.788,11.292c0,6.235-1.788,11.292-1.788,11.292
						s-1.787-5.057-1.787-11.292C345.912,445.897,347.699,440.842,347.699,440.842z"/>
				</g>
				<g>
					<path fill="#FCE39C" d="M353.71,446.123c0,0-1.739,3.643-5.06,6.962c-3.319,3.32-6.962,5.06-6.962,5.06s1.74-3.643,5.06-6.962
						C350.066,447.863,353.71,446.123,353.71,446.123z"/>
					<path fill="#FCE39C" d="M341.688,446.123c0,0,3.643,1.74,6.962,5.06c3.32,3.319,5.06,6.962,5.06,6.962s-3.644-1.739-6.962-5.06
						C343.429,449.766,341.688,446.123,341.688,446.123z"/>
				</g>
			</g>
			<g>
				<g>
					<path fill="#FEF2CA" d="M454.012,408.341c0,0-13.749,4.862-30.708,4.862c-16.961,0-30.71-4.862-30.71-4.862
						s13.749-4.862,30.71-4.862C440.263,403.479,454.012,408.341,454.012,408.341z"/>
					<path fill="#FEF2CA" d="M423.304,377.631c0,0,4.86,13.75,4.86,30.71c0,16.961-4.86,30.71-4.86,30.71s-4.861-13.749-4.861-30.71
						C418.442,391.381,423.304,377.631,423.304,377.631z"/>
				</g>
				<g>
					<path fill="#FEF2CA" d="M439.648,391.996c0,0-4.729,9.904-13.758,18.932c-9.027,9.028-18.934,13.76-18.934,13.76
						s4.73-9.906,13.758-18.934C429.742,396.726,439.648,391.996,439.648,391.996z"/>
					<path fill="#FEF2CA" d="M406.957,391.996c0,0,9.906,4.729,18.934,13.758c9.028,9.027,13.758,18.934,13.758,18.934
						s-9.906-4.731-18.934-13.76C411.688,401.9,406.957,391.996,406.957,391.996z"/>
				</g>
			</g>
		</g>
	</g>
	<g>
		<g>
			<g>
				<path fill="#EEBA73" d="M208.519,365.3c-4.478,10.976-13.78,19.884-24.941,23.881c-6.214,2.227-12.847,2.968-19.248,4.569
					c-6.403,1.604-12.867,4.27-17.056,9.37c-1.331-6.249,1.075-12.89,5.693-17.308c-3.096,4.804-6.549,9.457-10.534,13.551
					c-3.985,4.095-8.938,7.445-14.536,8.588c-6.063,1.236-13.258,0.142-17.617,4.531c1.913-1.651,1.597-4.723,1.79-7.243
					c0.391-5.138,3.123-10.054,7.282-13.098c-3.553-0.354-7.24,1.411-9.18,4.411c3.521-11.169,11.461-20.866,22.058-25.85
					c-6.076-1.69-12.862-0.165-17.844,3.701c1.8-5.718,5.372-10.733,10.019-14.521c-3.494,1.009-7.491-0.116-9.741-2.974
					c6.216-1.332,10.901-6.034,14.246-11.44c3.344-5.403,5.472-11.468,8.455-17.079c4.619-8.695,11.321-16.274,19.381-21.928
					c16.468,8.806,31.11,19.874,43.194,34.111c3.042,3.586,5.945,7.361,7.854,11.658C209.702,356.527,210.295,360.946,208.519,365.3
					z"/>
			</g>
			<g>
				<path fill="#D16A62" d="M162.636,369.227c-4.829,0.619-8.995,3.701-12.389,7.19c-3.394,3.49-6.265,7.485-9.904,10.718
					c-3.641,3.231-8.338,5.706-13.183,5.256c4.321-2.188,7.76-6.063,9.422-10.613c-2.392-0.006-4.781,0.589-6.889,1.717
					c3.49-8.197,9.616-15.246,17.243-19.847c-6.021,0.466-12.043,0.931-18.064,1.396c4.272-4.525,9.31-8.326,14.834-11.19
					c-4.375-1.494-9.28-1.377-13.578,0.33c4.218-0.932,7.395-4.373,9.883-7.904c2.488-3.53,4.659-7.417,8.077-10.057
					c-4.114-0.86-8.643,0.68-11.377,3.871c6.754-11.022,19.464-18.329,32.388-17.932c12.921,0.398,25.424,8.828,30.019,20.913
					c3.037,7.987,2.295,17.924-3.785,23.928c-7.027,6.938-19.213,7.205-25.089,15.14c1.186-4.854,3.164-9.514,5.831-13.738
					c-6.107,0.2-12.094,2.938-16.242,7.428C159.794,373.369,160.838,370.909,162.636,369.227z"/>
			</g>
		</g>
		<g>
			<g>
				
					<rect x="138.632" y="320.902" transform="matrix(-0.7071 -0.7071 0.7071 -0.7071 85.6012 703.7985)" fill="#8F969D" width="99.864" height="26.537"/>
			</g>
			<g>
				<g>
					<g>
						
							<rect x="161.438" y="297.5" transform="matrix(0.7072 0.707 -0.707 0.7072 268.0753 -25.7803)" fill="#BBC1C4" width="7.451" height="26.537"/>
					</g>
					<g>
						
							<rect x="165.545" y="299.201" transform="matrix(0.7071 0.7071 -0.7071 0.7071 269.8229 -26.4708)" fill="#757B81" width="2.639" height="26.537"/>
					</g>
				</g>
				<g>
					<g>
						
							<rect x="172.878" y="308.941" transform="matrix(0.7069 0.7073 -0.7073 0.7069 279.6601 -30.4757)" fill="#BBC1C4" width="7.45" height="26.537"/>
					</g>
					<g>
						
							<rect x="176.984" y="310.642" transform="matrix(0.707 0.7072 -0.7072 0.707 281.3094 -31.195)" fill="#757B81" width="2.639" height="26.537"/>
					</g>
				</g>
				<g>
					<g>
						
							<rect x="184.319" y="320.38" transform="matrix(0.7073 0.7069 -0.7069 0.7073 290.8995 -35.2719)" fill="#BBC1C4" width="7.449" height="26.537"/>
					</g>
					<g>
						
							<rect x="188.426" y="322.079" transform="matrix(0.7073 0.7069 -0.7069 0.7073 292.6051 -35.9755)" fill="#757B81" width="2.639" height="26.538"/>
					</g>
				</g>
				<g>
					<g>
						
							<rect x="195.759" y="331.819" transform="matrix(0.7071 0.7071 -0.7071 0.7071 302.4234 -39.9868)" fill="#BBC1C4" width="7.448" height="26.537"/>
					</g>
					<g>
						
							<rect x="199.865" y="333.521" transform="matrix(0.7076 0.7066 -0.7066 0.7076 303.8888 -40.7533)" fill="#757B81" width="2.637" height="26.537"/>
					</g>
				</g>
				<g>
					<g>
						
							<rect x="207.198" y="343.259" transform="matrix(0.707 0.7072 -0.7072 0.707 313.9185 -44.7104)" fill="#BBC1C4" width="7.449" height="26.538"/>
					</g>
					<g>
						
							<rect x="211.304" y="344.96" transform="matrix(0.707 0.7072 -0.7072 0.707 315.6354 -45.4113)" fill="#757B81" width="2.639" height="26.539"/>
					</g>
				</g>
			</g>
			<g>
				
					<rect x="138.122" y="338.79" transform="matrix(-0.7071 -0.7071 0.7071 -0.7071 66.6697 710.1614)" fill="#BBC1C4" width="84.585" height="4.966"/>
			</g>
		</g>
		<g>
			<polygon fill="#9DDAE8" points="99.905,328.805 149.609,313.98 156.256,306.197 211.343,241.855 217.06,235.169 217.731,234.388 
				217.042,234.351 162.514,232.097 152.905,231.687 107.67,314.577 			"/>
		</g>
		<g>
			<polygon fill="#9DDAE8" points="192.758,421.657 195.029,420.428 289.874,368.657 289.259,354.112 287.379,308.859 
				287.176,303.831 207.582,371.953 202.218,389.906 			"/>
		</g>
		<g>
			<polygon fill="#9DDAE8" points="160.205,300.22 221.436,361.45 365.856,253.029 360.864,248.038 281.514,168.706 
				268.625,155.818 167.245,290.851 162.347,297.388 			"/>
		</g>
		<g>
			<path fill="#E48177" d="M268.554,155.725l25.289,25.29l71.993,71.995c23.243-23.445,37.19-47.021,45.384-68.363
				c9.982-25.979,11.454-48.605,10.783-63.596c-0.54-11.975-2.421-19.07-2.421-19.07s-65.439-17.467-134.474,38.847
				C279.595,145.297,274.065,150.25,268.554,155.725z"/>
		</g>
		<g>
			<g>
				<path fill="#D5D8DC" d="M275.973,246.769c7.637,7.636,20.017,7.636,27.652,0c1.816-1.817,3.186-3.898,4.136-6.11
					c1.092-2.515,1.618-5.202,1.593-7.888c-0.053-4.951-1.962-9.889-5.729-13.655c-7.636-7.637-20.016-7.637-27.652,0
					c-3.517,3.516-5.399,8.06-5.69,12.667c-0.013,0.25-0.013,0.514-0.025,0.764C270.151,237.683,272.048,242.844,275.973,246.769z"
					/>
			</g>
			<g>
				<path fill="#EDF0F1" d="M274.049,236.734c8.877,8.876,23.281,8.876,32.156,0c1.227-1.225,2.279-2.568,3.148-3.963
					c-0.053-4.951-1.962-9.889-5.729-13.655c-7.636-7.637-20.016-7.637-27.652,0c-3.517,3.516-5.399,8.06-5.69,12.667
					C271.284,233.549,272.535,235.221,274.049,236.734z"/>
			</g>
			<g>
				<path fill="#455D73" d="M304.943,217.792c-8.344-8.342-21.938-8.342-30.28,0c-3.93,3.93-6.146,9.144-6.275,14.712
					c-0.111,5.884,2.104,11.416,6.275,15.587c8.343,8.342,21.937,8.342,30.28,0c1.937-1.938,3.444-4.19,4.525-6.704
					C312.971,233.305,311.182,224.05,304.943,217.792z M307.289,235.558c-0.224,1.471-0.632,2.943-1.247,4.359
					c-0.875,2.084-2.143,3.947-3.743,5.53c-6.891,6.911-18.12,6.911-25.009,0c-2.942-2.942-4.713-6.723-5.085-10.82
					c-0.075-0.67-0.113-1.359-0.093-2.047c0.11-4.6,1.937-8.92,5.178-12.142c6.889-6.909,18.118-6.909,25.009,0
					C306.358,224.496,308.128,230.102,307.289,235.558z"/>
			</g>
		</g>
		<g>
			<g>
				<path fill="#D5D8DC" d="M247.331,294.963c10.801,0,19.554-8.753,19.554-19.554c0-2.569-0.503-5.009-1.396-7.244
					c-1.005-2.551-2.533-4.822-4.452-6.705c-3.537-3.462-8.38-5.604-13.705-5.604c-10.801,0-19.554,8.753-19.554,19.554
					c0,4.973,1.88,9.517,4.934,12.979c0.167,0.188,0.354,0.373,0.522,0.561C236.791,292.653,241.781,294.963,247.331,294.963z"/>
			</g>
			<g>
				<path fill="#EDF0F1" d="M238.876,289.228c12.552,0,22.739-10.187,22.739-22.738c0-1.731-0.206-3.426-0.579-5.029
					c-3.537-3.462-8.38-5.604-13.705-5.604c-10.801,0-19.554,8.753-19.554,19.554c0,4.973,1.88,9.517,4.934,12.979
					C234.668,288.929,236.734,289.228,238.876,289.228z"/>
			</g>
			<g>
				<path fill="#455D73" d="M267.215,267.479c-3.241-8.195-11.063-13.483-19.889-13.483c-11.809,0-21.416,9.609-21.416,21.416
					c0,5.53,2.123,10.801,5.976,14.823c4.079,4.247,9.573,6.593,15.44,6.593c11.806,0,21.416-9.609,21.416-21.416
					C268.741,272.674,268.238,270.011,267.215,267.479z M247.326,293.103c-4.172,0-8.12-1.436-11.287-4.059
					c-0.502-0.447-1.005-0.896-1.471-1.379c-3.184-3.333-4.934-7.673-4.934-12.254c0-9.759,7.933-17.691,17.692-17.691
					c5.734,0,10.948,2.7,14.208,7.169c0,0,0,0.019,0.02,0.019c0.894,1.193,1.62,2.515,2.196,3.948
					c0.84,2.104,1.269,4.302,1.269,6.556C265.018,285.17,257.082,293.103,247.326,293.103z"/>
			</g>
		</g>
		<g>
			<path fill="#8FCDDA" d="M160.205,300.22l61.231,61.23l144.42-108.421l-4.992-4.991c-26.982,22.943-59.07,39.443-90.729,55.625
				c-12.606,6.464-25.663,13.036-39.797,14.042c-15.029,1.08-30.056-4.414-42.292-13.222c-6.703-4.843-13.241-10.876-20.801-13.633
				L160.205,300.22z"/>
		</g>
		<g>
			<path fill="#B1E2F2" d="M162.347,297.388c0.913,0.075,1.844,0.057,2.793-0.074c36.258-39.685,72.536-79.351,108.793-119.036
				c2.719-2.979,5.53-6.108,7.58-9.572l-12.889-12.887l-101.38,135.032L162.347,297.388z"/>
		</g>
		<g>
			<path fill="#B1E2F2" d="M107.67,314.577c11.472-9.815,19.554-23.688,27.859-36.595c10.466-16.257,23.726-32.869,42.591-37.096
				c9.759-2.179,19.908-0.726,29.814,0.708c1.099,0.167,2.273,0.298,3.408,0.26l5.717-6.686c0.019-0.129,0-0.242,0-0.373
				c0-0.148-0.018-0.297-0.018-0.446l-54.528-2.254l-9.609-0.41L107.67,314.577z"/>
		</g>
		<g>
			<path fill="#B1E2F2" d="M195.029,420.428l94.845-51.771l-0.615-14.545l-1.88-45.253c-2.141,2.271-2.605,5.811-2.886,9.033
				c-0.708,7.989-1.415,15.996-2.123,24.004c-0.671,7.506-1.435,15.326-5.4,21.732c-5.232,8.381-14.862,12.701-23.727,17.077
				C232.125,391.153,212.479,404.562,195.029,420.428z"/>
		</g>
		<g>
			<path fill="#D9796F" d="M293.843,181.015l71.993,71.995c23.243-23.445,37.19-47.021,45.384-68.363
				c-9.515,8.306-21.882,13.315-34.452,15.047c-16.033,2.234-32.422-0.465-47.896-5.215
				C316.915,190.792,305.369,185.913,293.843,181.015z"/>
		</g>
	</g>
</g>
</svg>
