<?xml version="1.0" encoding="utf-8"?>
<!-- Generator: Adobe Illustrator 16.0.0, SVG Export Plug-In . SVG Version: 6.00 Build 0)  -->
<!DOCTYPE svg PUBLIC "-//W3C//DTD SVG 1.1//EN" "http://www.w3.org/Graphics/SVG/1.1/DTD/svg11.dtd">
<svg version="1.1" id="Layer_1" xmlns="http://www.w3.org/2000/svg" xmlns:xlink="http://www.w3.org/1999/xlink" x="0px" y="0px"
	 width="100px" height="38px" viewBox="0 0 100 38" enable-background="new 0 0 100 38" xml:space="preserve">
<path fill="#6D6660" d="M50,37.02c16.451,0,33.017,0.295,49.564,0.859L100,37.443L77.081,14.527l-6.277,6.279L50,0L29.194,20.807
	l-6.277-6.279L0,37.443l0.436,0.436C16.982,37.314,33.549,37.02,50,37.02z M75.899,19.405c0.083-0.035,0.168-0.071,0.248-0.102
	c1.153-0.346,0.534,0.802,0.934,1.266c0.037,0.011,1.446-0.799,1.48-0.786c0.548,1.016,3.585,6.136,4.965,5.762
	c1.545,1.168,0.434,1.363,1.397,3.037c-0.636,0.383-1.734,0.211-2.371,0.594c-0.4,0.242-0.574,2.275-1.012,2.33
	c-0.171,0.053-0.3,0.038-0.403-0.019l0.174-0.175l-0.506-0.504c-0.159-1.072,0.158-2.846-0.979-1.869
	c-0.098,0.083-0.279,0.218-0.51,0.379l-6.663-6.664L75.899,19.405z M49.82,3.754c0.104-0.043,0.212-0.09,0.315-0.131
	c1.46-0.435-4.315,7.913-3.81,8.502c0.046,0.015,4.609-5.381,4.655-5.365c0.695,1.288,0.455,4.777,2.202,4.307
	c1.959,1.479,5.075,4.555,6.299,6.677c-0.806,0.483-1.105,1.558-1.912,2.043c-0.507,0.307-0.049-0.773-0.603-0.707
	c-1.915,0.617-1.365,0.03-3.477,1.84c-0.706,0.604-1.006,0.252-1.209,0.017c-2.263,2.344-3.593,0.401-5.957,2.629
	c-0.303-0.351-1.532-0.54-2.186-0.591c-0.552,0.066,0.97-2.799,0.063-2.43c-2.865,0.459-3.667,2.982-6.196,3.333
	c-0.015-0.132-0.046-0.264-0.131-0.364c-0.151,0.131-0.399,0.341-0.576,0.457c-0.072,0.008-0.149,0.019-0.224,0.029
	c-0.169-0.242-0.16-0.631-0.511-0.588c-0.13,0.051-0.357,0.265-0.597,0.498c-0.633-0.088-1.198-0.242-1.706-0.451
	c0.105-0.453,3.701-2.142,3.784-2.559c-0.234,0.203-3.9,1.588-4.134,1.79c-0.671,0.167,2.467-2.786,1.798-2.62
	c-0.283,0.113-2.581,2.046-3.006,2.428c-0.292-0.252-0.551-0.534-0.79-0.835L49.82,3.754z M22.423,17.939
	c1.154-0.344,1.007,0.031,1.405,0.496c0.037,0.012,0.975-0.028,1.011-0.015c0.546,1.016-0.952,3.807,1.005,4.222
	c1.547,1.169,2.993,4.768,3.958,6.443c-0.636,0.381-0.872,1.229-1.508,1.615c-0.401,0.24-0.039-0.612-0.477-0.561
	c-1.51,0.489-1.076,0.027-2.743,1.455c-0.557,0.477-0.797,0.198-0.954,0.012c-1.787,1.851-3.181,2.012-5.048,3.771
	c-0.241-0.279,2.607-2.565,2.088-2.607c-0.436,0.053-6.046,2.861-6.759,3.15c-2.263,0.361,0.445-2.268-1.55-1.993
	c-0.013-0.103-0.037-0.206-0.104-0.286c-0.119,0.104-0.313,0.268-0.456,0.36c-0.057,0.005-0.116,0.013-0.178,0.021
	c-0.131-0.19-0.125-0.496-0.401-0.462c-0.104,0.041-0.283,0.208-0.472,0.393c-0.498-0.072-0.945-0.19-1.344-0.355
	c0.079-0.357,2.92-1.693,2.986-2.021c-0.185,0.159-3.08,1.253-3.263,1.413c-0.531,0.132,1.945-2.199,1.416-2.069
	C10.813,31.016,9,32.539,8.662,32.84c-0.228-0.199-0.434-0.422-0.621-0.66l14.135-14.136C22.261,18.01,22.345,17.972,22.423,17.939z
	"/>
</svg>
