<?xml version="1.0" encoding="utf-8"?>
<!-- Generator: Adobe Illustrator 16.0.0, SVG Export Plug-In . SVG Version: 6.00 Build 0)  -->
<!DOCTYPE svg PUBLIC "-//W3C//DTD SVG 1.1//EN" "http://www.w3.org/Graphics/SVG/1.1/DTD/svg11.dtd">
<svg version="1.1" xmlns="http://www.w3.org/2000/svg" xmlns:xlink="http://www.w3.org/1999/xlink" x="0px" y="0px" width="263px"
	 height="263px" viewBox="0 0 263 263" enable-background="new 0 0 263 263" xml:space="preserve">
<g id="Layer_1" display="none">
	<rect display="inline" fill="#A6C839" width="263" height="263"/>
	<path display="inline" fill="#F9E49F" d="M197.815,146.993c0-8.314-5.945-15.91-15.751-21.785
		c5.427-4.546,8.604-9.863,8.604-15.564c0-9.85-9.343-18.563-23.725-24.053c6.427-4,10.285-9.111,10.285-14.685
		c0-12.841-20.477-23.25-45.723-23.25c-25.26,0-45.736,10.409-45.736,23.25c0,5.574,3.865,10.685,10.287,14.685
		c-14.377,5.49-23.726,14.203-23.726,24.053c0,5.702,3.179,11.018,8.604,15.564c-9.805,5.875-15.75,13.471-15.75,21.785
		c0,17.209,25.375,31.374,58.116,33.429v34.922h16.405v-34.915C172.453,178.367,197.815,164.202,197.815,146.993z"/>
	<line display="inline" opacity="0.2" fill="#010101" x1="131.5" y1="263" x2="263" y2="263"/>
	<rect x="131.5" display="inline" opacity="0.2" fill="#010101" width="131.5" height="263"/>
	<polygon display="inline" opacity="0.2" fill="#010101" points="263,263 247.32,23.68 0,0 263,0 	"/>
</g>
<g id="Layer_2" display="none">
	<path display="inline" fill="#A1C4A7" d="M263,0"/>
	<rect display="inline" fill="#F26560" width="263" height="263"/>
	<line display="inline" fill="#FBAB1A" x1="263" y1="263" x2="263" y2="0"/>
	<path display="inline" fill="#BA906E" d="M263,263"/>
	<polygon display="inline" fill="#F9E49F" points="209.806,103.72 208.021,47.653 160.353,77.23 176.953,86.124 153.491,129.914 
		102.468,137.886 53.194,204.152 68.241,215.344 112.94,155.231 165.614,147.007 193.484,94.978 	"/>
	<rect x="131.5" display="inline" opacity="0.2" fill="#010101" width="131.5" height="263"/>
	<polygon display="inline" opacity="0.2" fill="#010101" points="263,263 247.32,23.68 0,0 263,0 	"/>
	<path display="inline" opacity="0.1" fill="#010101" d="M263,0"/>
	<path display="inline" opacity="0.2" fill="#010101" d="M263,263"/>
</g>
<g id="Layer_3" display="none">
	<rect display="inline" fill="#A1C4A7" width="263" height="263"/>
	<path display="inline" fill="#F9E49F" d="M238.119,103.187c0-14.929-12.104-27.032-27.032-27.032c-1.169,0-2.312,0.103-3.435,0.244
		c-7.994-16.97-25.209-28.746-45.21-28.746c-15.313,0-29.003,6.902-38.172,17.747c-4.996-10.485-15.654-17.747-28.046-17.747
		c-13.452,0-24.875,8.565-29.202,20.527c-0.623-0.032-1.239-0.096-1.875-0.096c-22.236,0-40.266,18.023-40.266,40.259
		c0,10.517,4.064,20.059,10.672,27.231c-2.659,5.605-4.193,11.853-4.193,18.467c0,23.886,19.359,43.247,43.245,43.247
		c11.095,0,21.176-4.215,28.836-11.085c5.163,16.864,20.849,29.141,39.412,29.141c20.957,0,38.229-15.667,40.837-35.922
		c4.636,2.139,9.791,3.365,15.236,3.365c20.148,0,36.483-16.335,36.483-36.483c0-8.29-2.793-15.905-7.448-22.03
		C234.151,119.323,238.119,111.72,238.119,103.187z"/>
	<rect x="131.5" display="inline" opacity="0.2" fill="#010101" width="131.5" height="263"/>
	<path display="inline" opacity="0.2" fill="#010101" d="M0,0"/>
	<polygon display="inline" opacity="0.2" fill="#010101" points="263,263 247.32,23.68 0,0 263,0 	"/>
</g>
<g id="Layer_4">
	<rect fill="#F2CC14" width="263" height="263"/>
	<polygon fill="#F9E49F" points="131.5,20.791 146.396,62.655 177.024,30.474 173.608,74.765 214.683,57.827 193.539,96.904 
		237.952,98.137 202.746,125.233 242.812,144.419 199.632,154.859 228.437,188.685 184.735,180.658 197.295,223.28 160.638,198.162 
		154.77,242.209 131.5,204.352 108.23,242.209 102.362,198.162 65.711,223.28 78.271,180.658 34.57,188.685 63.374,154.859 
		20.188,144.419 60.26,125.233 25.054,98.137 69.461,96.904 48.324,57.827 89.392,74.765 85.976,30.474 116.61,62.655 	"/>
	<rect x="131.5" opacity="0.2" fill="#010101" width="131.5" height="263"/>
	<path opacity="0.2" fill="#010101" d="M263,0"/>
	<polygon opacity="0.1" fill="#010101" points="263,0 0,0 230.465,46.41 263,263 	"/>
</g>
</svg>
