<?xml version="1.0" encoding="utf-8"?>
<!-- Generator: Adobe Illustrator 16.0.0, SVG Export Plug-In . SVG Version: 6.00 Build 0)  -->
<!DOCTYPE svg PUBLIC "-//W3C//DTD SVG 1.1//EN" "http://www.w3.org/Graphics/SVG/1.1/DTD/svg11.dtd">
<svg version="1.1" id="Layer_1" xmlns="http://www.w3.org/2000/svg" xmlns:xlink="http://www.w3.org/1999/xlink" x="0px" y="0px"
	 width="263px" height="263px" viewBox="0 0 263 263" enable-background="new 0 0 263 263" xml:space="preserve">
<rect fill="#A6C839" width="263" height="263"/>
<path fill="#F9E49F" d="M197.815,146.993c0-8.314-5.945-15.91-15.751-21.785c5.427-4.546,8.604-9.863,8.604-15.564
	c0-9.85-9.343-18.563-23.725-24.053c6.427-4,10.285-9.111,10.285-14.685c0-12.841-20.477-23.25-45.723-23.25
	c-25.26,0-45.736,10.409-45.736,23.25c0,5.574,3.865,10.685,10.287,14.685c-14.377,5.49-23.726,14.203-23.726,24.053
	c0,5.702,3.179,11.018,8.604,15.564c-9.805,5.875-15.75,13.471-15.75,21.785c0,17.209,25.375,31.374,58.116,33.429v34.922h16.405
	v-34.915C172.453,178.367,197.815,164.202,197.815,146.993z"/>
<line opacity="0.2" fill="#010101" x1="131.5" y1="263" x2="263" y2="263"/>
<rect x="131.5" opacity="0.2" fill="#010101" width="131.5" height="263"/>
<polygon opacity="0.2" fill="#010101" points="263,263 247.32,23.68 0,0 263,0 "/>
</svg>
